<?xml version="1.0" encoding="utf-8"?>
<!-- Generator: Adobe Illustrator 26.2.1, SVG Export Plug-In . SVG Version: 6.00 Build 0)  -->
<svg version="1.1" id="Layer_1" xmlns="http://www.w3.org/2000/svg" xmlns:xlink="http://www.w3.org/1999/xlink" x="0px" y="0px"
	 viewBox="0 0 100 100" style="enable-background:new 0 0 100 100;" xml:space="preserve">
<style type="text/css">
	.st0{fill:#FFFFFF;}
	.st1{fill:#002868;}
	.st2{clip-path:url(#SVGID_00000109729833920377397540000005962621609056296586_);}
	.st3{fill:#0063CE;}
	.st4{fill:none;stroke:#FFFFFF;stroke-width:0.5;stroke-miterlimit:10;}
	.st5{opacity:0.75;fill:none;stroke:#FFFFFF;stroke-width:0.25;stroke-miterlimit:10;}
	.st6{opacity:0.75;fill:none;stroke:#FFFFFF;stroke-width:0.15;stroke-miterlimit:10;}
	.st7{fill:#8FE2FF;}
	.st8{fill:none;}
	.st9{fill:none;stroke:#FFFFFF;stroke-miterlimit:10;}
	.st10{fill:none;stroke:#8FE2FF;stroke-width:0.5;stroke-miterlimit:10;}
	.st11{fill:none;stroke:#8FE2FF;stroke-width:0.25;stroke-miterlimit:10;}
</style>
<g>
	<circle class="st0" cx="50" cy="50" r="48.5"/>
	<path class="st1" d="M50,2c26.5,0,48,21.5,48,48S76.5,98,50,98S2,76.5,2,50S23.5,2,50,2 M50,1C22.9,1,1,22.9,1,50s21.9,49,49,49
		s49-21.9,49-49S77.1,1,50,1L50,1z"/>
</g>
<g>
	<defs>
		<circle id="SVGID_1_" cx="50" cy="50" r="43.9"/>
	</defs>
	<clipPath id="SVGID_00000106119098483555789450000006278026494067814556_">
		<use xlink:href="#SVGID_1_"  style="overflow:visible;"/>
	</clipPath>
	<g style="clip-path:url(#SVGID_00000106119098483555789450000006278026494067814556_);">
		<circle class="st3" cx="50" cy="50" r="43.9"/>
		<line class="st4" x1="6.1" y1="35.4" x2="93.9" y2="35.4"/>
		<line class="st5" x1="6.1" y1="20.7" x2="93.9" y2="20.7"/>
		<line class="st6" x1="6.1" y1="20.7" x2="93.9" y2="20.7"/>
		<line class="st6" x1="6.1" y1="14.4" x2="93.9" y2="14.4"/>
		<line class="st6" x1="6.1" y1="20.7" x2="93.9" y2="20.7"/>
		<line class="st6" x1="6.1" y1="27.8" x2="93.9" y2="27.8"/>
		<line class="st6" x1="6.1" y1="42.7" x2="93.9" y2="42.7"/>
		<line class="st5" x1="6.1" y1="50" x2="93.9" y2="50"/>
		<line class="st5" x1="50" y1="6.1" x2="50" y2="93.9"/>
		<line class="st5" x1="1.6" y1="79.3" x2="89.5" y2="79.3"/>
		<line class="st5" x1="20.7" y1="91.7" x2="20.7" y2="3.9"/>
		<line class="st5" x1="79.1" y1="93.9" x2="79.1" y2="6.1"/>
		<line class="st4" x1="6.1" y1="64.3" x2="93.9" y2="64.3"/>
		<line class="st4" x1="35.6" y1="93.7" x2="35.6" y2="5.9"/>
		<line class="st4" x1="64.4" y1="93.7" x2="64.4" y2="5.9"/>
		<line class="st6" x1="6.1" y1="57.1" x2="93.9" y2="57.1"/>
		<line class="st6" x1="6.1" y1="71.8" x2="93.9" y2="71.8"/>
		<line class="st6" x1="6.1" y1="86.8" x2="93.9" y2="86.8"/>
		<line class="st6" x1="86.2" y1="6.7" x2="86.2" y2="94.5"/>
		<line class="st6" x1="72.8" y1="6.7" x2="72.8" y2="94.5"/>
		<line class="st6" x1="57.9" y1="6.7" x2="57.9" y2="94.5"/>
		<line class="st6" x1="43.5" y1="6.7" x2="43.5" y2="94.5"/>
		<line class="st6" x1="28.8" y1="6.7" x2="28.8" y2="94.5"/>
		<line class="st6" x1="13.8" y1="6.7" x2="13.8" y2="94.5"/>
	</g>
</g>
<g>
	<g>
		<path class="st7" d="M54.1,29.7c-0.1-0.2-0.1-0.3-0.1-0.5c-12,1-22,9.1-25.9,20c0.1,0.2,0.2,0.5,0.3,0.7
			C32,38.8,42.1,30.6,54.1,29.7z"/>
		<path class="st7" d="M63.1,29.9c-0.1,0.2-0.1,0.3-0.2,0.5c13.1,3,23,14.7,23,28.7c0,16.3-13.2,29.5-29.5,29.5
			c-16.3,0-29.5-13.2-29.5-29.5c0-0.2,0-0.4,0-0.6c-0.2,0.1-0.3,0.1-0.5,0.2c0,0.2,0,0.3,0,0.5c0,16.5,13.4,30,30,30
			c16.5,0,30-13.4,30-30C86.4,44.9,76.4,32.9,63.1,29.9z"/>
	</g>
	<g>
		<path class="st7" d="M56.8,38.9c-0.1,0-0.3,0-0.4,0c-9.6,0-17.6,6.7-19.7,15.6c0.1,0.1,0.1,0.2,0.2,0.3c0.1-0.1,0.2-0.2,0.3-0.3
			c2.1-8.7,9.9-15.2,19.2-15.2c0.1,0,0.2,0,0.3,0c0.1-0.1,0.1-0.1,0.2-0.2C56.9,39.1,56.9,39,56.8,38.9z"/>
		<path class="st7" d="M64.8,40.7c-0.1,0.1-0.3,0.2-0.4,0.4c6.9,3.1,11.7,10,11.7,18c0,10.9-8.9,19.7-19.7,19.7
			c-9.7,0-17.7-7-19.4-16.2c0,0-0.1-0.1-0.1-0.1c-0.1,0.1-0.2,0.3-0.4,0.4c1.8,9.3,10,16.4,19.9,16.4c11.2,0,20.2-9.1,20.2-20.2
			C76.7,50.9,71.8,43.9,64.8,40.7z"/>
	</g>
	<g>
		<path class="st7" d="M56.6,37c0,0-0.1,0-0.1,0c-1.6,0-2.9-1.3-2.9-2.9c0-1.2,0.7-2.2,1.7-2.6c-0.1-0.1-0.1-0.1-0.2-0.2
			c-1,0.5-1.8,1.6-1.8,2.8c0,1.7,1.4,3.1,3.1,3.1c0.1,0,0.1,0,0.1,0C56.6,37.2,56.6,37.1,56.6,37z"/>
	</g>
	<g>
		<path class="st7" d="M81.1,64.1c-1.7,0-3.1-1.4-3.1-3.1s1.4-3.1,3.1-3.1s3.1,1.4,3.1,3.1S82.8,64.1,81.1,64.1z M81.1,58.1
			c-1.6,0-2.9,1.3-2.9,2.9s1.3,2.9,2.9,2.9s2.9-1.3,2.9-2.9S82.7,58.1,81.1,58.1z"/>
	</g>
	<g>
		<path class="st7" d="M75,45.5c-1.7,0-3.1-1.4-3.1-3.1c0-1.7,1.4-3.1,3.1-3.1s3.1,1.4,3.1,3.1C78.1,44.2,76.7,45.5,75,45.5z
			 M75,39.6c-1.6,0-2.9,1.3-2.9,2.9c0,1.6,1.3,2.9,2.9,2.9s2.9-1.3,2.9-2.9C77.8,40.9,76.6,39.6,75,39.6z"/>
	</g>
	<g>
		<path class="st7" d="M37.9,45.5c-1.7,0-3.1-1.4-3.1-3.1c0-1.7,1.4-3.1,3.1-3.1s3.1,1.4,3.1,3.1C41,44.2,39.6,45.5,37.9,45.5z
			 M37.9,39.6c-1.6,0-2.9,1.3-2.9,2.9c0,1.6,1.3,2.9,2.9,2.9s2.9-1.3,2.9-2.9C40.7,40.9,39.4,39.6,37.9,39.6z"/>
	</g>
	<g>
		<path class="st7" d="M39.9,80.6c-1.7,0-3.1-1.4-3.1-3.1s1.4-3.1,3.1-3.1s3.1,1.4,3.1,3.1S41.7,80.6,39.9,80.6z M39.9,74.6
			c-1.6,0-2.9,1.3-2.9,2.9s1.3,2.9,2.9,2.9s2.9-1.3,2.9-2.9S41.5,74.6,39.9,74.6z"/>
	</g>
	<g>
		<path class="st7" d="M56.4,87.1c-1.7,0-3.1-1.4-3.1-3.1c0-1.7,1.4-3.1,3.1-3.1s3.1,1.4,3.1,3.1C59.5,85.7,58.1,87.1,56.4,87.1z
			 M56.4,81.1c-1.6,0-2.9,1.3-2.9,2.9c0,1.6,1.3,2.9,2.9,2.9s2.9-1.3,2.9-2.9C59.3,82.4,58,81.1,56.4,81.1z"/>
	</g>
	<g>
		<path class="st7" d="M72.9,80.6c-1.7,0-3.1-1.4-3.1-3.1s1.4-3.1,3.1-3.1s3.1,1.4,3.1,3.1S74.6,80.6,72.9,80.6z M72.9,74.6
			c-1.6,0-2.9,1.3-2.9,2.9s1.3,2.9,2.9,2.9s2.9-1.3,2.9-2.9S74.5,74.6,72.9,74.6z"/>
	</g>
	<g>
		<path class="st7" d="M34.2,62.2c-0.5,1-1.4,1.6-2.6,1.6c-1.6,0-2.9-1.3-2.9-2.9c0-0.4,0.1-0.7,0.2-1c-0.1-0.1-0.1-0.1-0.2-0.2
			c-0.2,0.4-0.2,0.8-0.2,1.2c0,1.7,1.4,3.1,3.1,3.1c1.3,0,2.4-0.8,2.8-1.9C34.4,62.2,34.3,62.2,34.2,62.2z"/>
	</g>
</g>
<line class="st8" x1="8.6" y1="35.2" x2="8.6" y2="35.2"/>
<line class="st9" x1="92" y1="35.2" x2="91.1" y2="34.9"/>
<g>
	<circle class="st10" cx="40.7" cy="39" r="24"/>
	<circle class="st10" cx="40.7" cy="39" r="16.1"/>
	<circle class="st11" cx="40.7" cy="18.9" r="2.4"/>
	<circle class="st11" cx="20.9" cy="40.5" r="2.4"/>
	<circle class="st11" cx="60.6" cy="40.5" r="2.4"/>
	<circle class="st11" cx="55.7" cy="25.5" r="2.4"/>
	<circle class="st11" cx="25.7" cy="25.5" r="2.4"/>
	<circle class="st11" cx="27.4" cy="53.8" r="2.4"/>
	<circle class="st11" cx="40.7" cy="59.1" r="2.4"/>
	<circle class="st11" cx="54" cy="53.8" r="2.4"/>
</g>
</svg>
