<?xml version="1.0" encoding="utf-8"?>
<!-- Generator: Adobe Illustrator 26.2.1, SVG Export Plug-In . SVG Version: 6.00 Build 0)  -->
<svg version="1.1" id="Layer_1" xmlns="http://www.w3.org/2000/svg" xmlns:xlink="http://www.w3.org/1999/xlink" x="0px" y="0px"
	 viewBox="0 0 275 150" style="enable-background:new 0 0 275 150;" xml:space="preserve">
<style type="text/css">
	.st0{fill:#C0C0C0;}
	.st1{fill:#FEE39B;}
	.st2{fill:#FFC82F;}
	.st3{fill:#F49E1E;}
	.st4{fill:#CD7228;}
	.st5{fill:#3BA3DB;}
</style>
<rect class="st0" width="275" height="150"/>
<g>
	<path class="st1" d="M220,145h-182c-3.8,0-6.9-3.1-6.9-6.9v-102c0-3.8,3.1-6.9,6.9-6.9h150.6c3.8,0,6.9,3.1,6.9,6.9
		c0,3.4,1,6.6,2.8,9.4c3.2,5,8.7,8,14.6,8c1.8,0,3.5-0.3,5.1-0.8c4.4-1.4,8.9,1.9,8.9,6.6v78.8C226.8,141.9,223.8,145,220,145z"/>
	<g>
		<path class="st2" d="M217.9,52.7c-1.7,0.5-3.4,0.8-5.1,0.8c-5.9,0-11.4-3-14.6-8c-1.8-2.8-2.8-6.1-2.8-9.4c0-3.8-3.1-6.9-6.9-6.9
			H129V145h91c3.8,0,6.9-3.1,6.9-6.9V59.3C226.8,54.7,222.4,51.4,217.9,52.7z"/>
		<path class="st2" d="M220,145h-182c-6.2,0-9.2-7.5-4.8-11.8L104,65.1c2.1-2,5.1-2.5,7.7-1.2L129,72l17.2-8.2
			c2.6-1.2,5.7-0.7,7.7,1.2l70.9,68.1C229.2,137.5,226.1,145,220,145z"/>
	</g>
	<g>
		<path class="st3" d="M126,85.8L35,42.3c-6.6-3.1-4.3-13.1,3-13.1h150.6c3.8,0,6.9,3.1,6.9,6.9c0,3.4,1,6.6,2.8,9.4
			c2.3,3.5,0.9,8.2-2.8,9.9l-63.5,30.3C130,86.7,127.9,86.7,126,85.8z"/>
		<path class="st3" d="M224.7,133.2l-70.9-68.1c-2.1-2-5.1-2.5-7.7-1.2L129,72v73h91C226.1,145,229.2,137.5,224.7,133.2z"/>
	</g>
	<path class="st4" d="M198.2,45.6c-1.8-2.8-2.8-6.1-2.8-9.4c0-3.8-3.1-6.9-6.9-6.9H129v57.3c1,0,2-0.2,3-0.7l63.5-30.3
		C199.1,53.7,200.5,49,198.2,45.6z"/>
	<path class="st5" d="M212.8,67.3c-10.6,0-20.4-5.3-26.1-14.2c-3.3-5-5-10.9-5-16.9c0-17.2,14-31.1,31.1-31.1s31.1,14,31.1,31.1
		c0,13.7-8.8,25.7-21.9,29.7C219,66.8,215.9,67.3,212.8,67.3z"/>
	<path class="st2" d="M213.1,24.1l-4,2.3c-3,1.7-1.8,6.4,1.7,6.4c0.2,0,0.4,0,0.6-0.1v12.3c0,1.9,1.5,3.4,3.4,3.4
		c1.9,0,3.4-1.5,3.4-3.4v-18C218.3,24.5,215.4,22.8,213.1,24.1z"/>
	<g>
	</g>
	<g>
	</g>
	<g>
	</g>
	<g>
	</g>
	<g>
	</g>
	<g>
	</g>
	<g>
	</g>
	<g>
	</g>
	<g>
	</g>
	<g>
	</g>
	<g>
	</g>
	<g>
	</g>
	<g>
	</g>
	<g>
	</g>
	<g>
	</g>
</g>
</svg>
