<?xml version="1.0" encoding="utf-8"?>
<!-- Generator: Adobe Illustrator 26.2.1, SVG Export Plug-In . SVG Version: 6.00 Build 0)  -->
<svg version="1.1" id="Layer_1" xmlns="http://www.w3.org/2000/svg" xmlns:xlink="http://www.w3.org/1999/xlink" x="0px" y="0px"
	 viewBox="0 0 275 150" style="enable-background:new 0 0 275 150;" xml:space="preserve">
<style type="text/css">
	.st0{fill:#C0C0C0;}
	.st1{fill:#C74646;}
	.st2{fill:#F1ECBF;}
	.st3{fill:#BBB496;}
	.st4{fill:#ED7161;}
	.st5{fill:#D85B4A;}
	.st6{fill:#E95954;}
</style>
<rect class="st0" width="275" height="150"/>
<g>
	<g>
		<g>
			<path class="st1" d="M162.8,26.7l-21.4-20c-2.5-2.4-6.5-2.4-9,0l-21.4,20H162.8z"/>
		</g>
		<polygon class="st2" points="192.4,26.7 81.3,26.7 81.3,78.8 117.5,106.4 156.1,106.4 192.4,78.8 		"/>
		<path class="st3" d="M144.1,48.4h-14.5c-1.3,0-2.4-1.1-2.4-2.4s1.1-2.4,2.4-2.4h14.5c1.3,0,2.4,1.1,2.4,2.4S145.4,48.4,144.1,48.4
			z"/>
		<path class="st3" d="M165.8,87.1h-14.5c-1.3,0-2.4-1.1-2.4-2.4s1.1-2.4,2.4-2.4h14.5c1.3,0,2.4,1.1,2.4,2.4S167.1,87.1,165.8,87.1
			z"/>
		<path class="st3" d="M119.9,67.8h-12.1c-1.3,0-2.4-1.1-2.4-2.4c0-1.3,1.1-2.4,2.4-2.4h12.1c1.3,0,2.4,1.1,2.4,2.4
			C122.4,66.7,121.3,67.8,119.9,67.8z"/>
		<path class="st3" d="M156.1,67.8h-16.9c-1.3,0-2.4-1.1-2.4-2.4c0-1.3,1.1-2.4,2.4-2.4h16.9c1.3,0,2.4,1.1,2.4,2.4
			C158.6,66.7,157.5,67.8,156.1,67.8z"/>
		<path class="st3" d="M129.6,67.8c-0.6,0-1.3-0.3-1.7-0.7c-0.4-0.5-0.7-1.1-0.7-1.7c0-0.7,0.3-1.3,0.7-1.7c0.9-0.9,2.5-0.9,3.4,0
			c0.4,0.5,0.7,1.1,0.7,1.7c0,0.6-0.3,1.3-0.7,1.7C130.8,67.5,130.2,67.8,129.6,67.8z"/>
		<path class="st3" d="M141.7,87.1h-24.1c-1.3,0-2.4-1.1-2.4-2.4s1.1-2.4,2.4-2.4h24.1c1.3,0,2.4,1.1,2.4,2.4S143,87.1,141.7,87.1z"
			/>
		<path class="st3" d="M107.9,87.1c-0.6,0-1.3-0.3-1.7-0.7c-0.5-0.5-0.7-1.1-0.7-1.7c0-0.6,0.2-1.3,0.7-1.7c0.9-0.9,2.5-0.9,3.4,0
			c0.4,0.5,0.7,1.1,0.7,1.7c0,0.6-0.3,1.3-0.7,1.7C109.1,86.8,108.5,87.1,107.9,87.1z"/>
		<path class="st3" d="M165.8,67.8c-0.6,0-1.3-0.3-1.7-0.7c-0.5-0.5-0.7-1.1-0.7-1.7c0-0.7,0.3-1.3,0.7-1.7c0.9-0.9,2.5-0.9,3.4,0
			c0.4,0.5,0.7,1.1,0.7,1.7c0,0.6-0.3,1.3-0.7,1.7C167.1,67.5,166.4,67.8,165.8,67.8z"/>
		<polygon class="st1" points="81.6,79 81.3,78.8 81.3,54.3 66.8,67.8 66.8,67.8 		"/>
		<polygon class="st1" points="192.4,54.3 192.4,78.8 191.9,79.2 191.9,79.2 206.8,67.8 206.8,67.8 		"/>
		<polygon class="st4" points="66.8,145 67.1,145 205.7,145 206.5,145 206.8,145 156.1,106.4 117.5,106.4 		"/>
		<polygon class="st5" points="66.8,145 66.8,67.8 117.5,106.4 		"/>
		<polygon class="st6" points="206.8,145 206.8,67.8 156.1,106.4 		"/>
	</g>
	<g>
	</g>
	<g>
	</g>
	<g>
	</g>
	<g>
	</g>
	<g>
	</g>
	<g>
	</g>
	<g>
	</g>
	<g>
	</g>
	<g>
	</g>
	<g>
	</g>
	<g>
	</g>
	<g>
	</g>
	<g>
	</g>
	<g>
	</g>
	<g>
	</g>
</g>
</svg>
