<?xml version="1.0" encoding="utf-8"?>
<!-- Generator: Adobe Illustrator 26.2.1, SVG Export Plug-In . SVG Version: 6.00 Build 0)  -->
<svg version="1.1" id="Layer_1" xmlns="http://www.w3.org/2000/svg" xmlns:xlink="http://www.w3.org/1999/xlink" x="0px" y="0px"
	 viewBox="0 0 958 174.6" style="enable-background:new 0 0 958 174.6;" xml:space="preserve">
<style type="text/css">
	.st0{fill:#3660A1;}
	.st1{fill:#1C262D;}
	.st2{fill-rule:evenodd;clip-rule:evenodd;fill:#1C262D;}
	.st3{fill:#F2F2F2;}
</style>
<g>
	<path class="st0" d="M123.2,27.9c-0.1-7-5.7-12.8-12.7-12.9H10v17.2h96.1v32H34.9v17.2h71.2v31.8H34.9v17.2h75.5
		c7.1-0.1,12.9-5.9,12.9-13V76.8l-6.9-4l6.9-4.3L123.2,27.9z"/>
</g>
<g>
	<polygon class="st1" points="10,39 98.9,39 98.9,56.2 27.1,56.2 27.1,88.4 98.9,88.4 98.9,105.3 27.2,105.3 27.2,130.4 10,130.4 	
		"/>
</g>
<g>
	<g>
		<path class="st1" d="M193.8,130c-8.5,0-16.4-1.4-23.7-4.3c-7.3-2.9-13.7-6.9-19.2-12.1c-5.5-5.2-9.8-11.3-12.8-18.3
			c-3.1-7-4.6-14.6-4.6-22.8c0-8.3,1.5-16,4.6-22.9c3.1-7,7.3-13,12.7-18.1c5.4-5.1,11.8-9.1,19-11.9c7.2-2.9,15.1-4.3,23.6-4.3
			c8.6,0,16.5,1.4,23.6,4.1c7.1,2.7,13.4,6.4,18.6,11.2l-20.7,20.9c-2.5-2.7-5.5-4.8-9.1-6.4c-3.6-1.6-7.7-2.3-12.5-2.3
			c-4.1,0-8,0.7-11.4,2c-3.5,1.4-6.4,3.3-8.9,5.9c-2.5,2.6-4.4,5.7-5.8,9.4c-1.4,3.7-2.1,7.8-2.1,12.4c0,4.7,0.7,8.9,2.1,12.5
			c1.4,3.7,3.3,6.8,5.8,9.4c2.5,2.6,5.5,4.6,8.9,6c3.5,1.4,7.3,2.1,11.4,2.1c4.7,0,8.8-0.7,12.5-2.2c3.7-1.5,6.9-3.6,9.6-6.4
			l20.8,20.9c-5.5,4.8-11.7,8.5-18.5,11.1C211.1,128.7,203,130,193.8,130z"/>
	</g>
	<g>
		<polygon class="st1" points="338.8,17.2 338.8,128.2 307.7,128.2 307.7,84.5 272,84.5 272,128.2 240.9,128.2 240.9,17.2 272,17.2 
			272,58.6 307.7,58.6 307.7,17.2 		"/>
	</g>
	<g>
		<path class="st1" d="M416.5,17.2h-31.7l-42.1,111h31.7l6.3-18.7h39l6.1,18.7h32.3L416.5,17.2z M388.8,85.1l11.6-34.4l11.3,34.4
			H388.8z"/>
	</g>
	<g>
		<polygon class="st1" points="578.2,17.2 578.2,128.2 547.5,128.2 547.5,76 529.4,102 509.5,102 491.5,75.9 491.5,128.2 
			460.8,128.2 460.8,17.2 483.3,17.2 519.5,70.5 555.7,17.2 		"/>
	</g>
	<g>
		<path class="st1" d="M674.6,33.8c-3.4-5.4-7.9-9.5-13.7-12.3s-12.2-4.3-19.3-4.3h-51.3v111h31.1v-39h20.2c7.1,0,13.6-1.4,19.3-4.3
			s10.3-7,13.7-12.4c3.4-5.4,5-11.8,5-19.3C679.7,45.6,678,39.1,674.6,33.8z M647,60.7c-1.2,2-2.9,3.5-4.9,4.5c-2,1-4.2,1.5-6.6,1.5
			h-14.1V39.6h14.1c2.4,0,4.6,0.5,6.6,1.5c2,1,3.6,2.5,4.9,4.5c1.2,2,1.9,4.6,1.9,7.6C648.9,56.2,648.3,58.7,647,60.7z"/>
	</g>
	<g>
		<path class="st1" d="M684.5,128.2v-111h31.1v111H684.5z"/>
	</g>
	<g>
		<path class="st1" d="M782.4,130.4c-8.7,0-16.7-1.5-24-4.4c-7.3-2.9-13.7-7-19.1-12.2c-5.4-5.2-9.7-11.3-12.7-18.4
			c-3-7.1-4.5-14.7-4.5-22.9c0-8.3,1.5-16,4.4-22.9c3-7,7.1-13,12.5-18.2c5.4-5.2,11.7-9.2,19-12.1c7.3-2.9,15.3-4.3,24-4.3
			c8.7,0,16.7,1.4,24,4.3c7.3,2.9,13.6,6.9,19,12.1c5.4,5.2,9.6,11.3,12.5,18.3c3,7,4.4,14.7,4.4,23c0,8.2-1.5,15.8-4.4,22.8
			c-3,7-7.1,13.1-12.5,18.4c-5.4,5.2-11.7,9.3-19,12.2C798.9,128.9,791,130.4,782.4,130.4z M782.1,102.9c5.8,0,10.8-1.2,15.1-3.7
			c4.2-2.5,7.5-6,9.8-10.6c2.3-4.6,3.4-9.9,3.4-16.1c0-4.6-0.6-8.7-1.9-12.4c-1.3-3.7-3.2-6.9-5.7-9.5c-2.5-2.7-5.5-4.7-8.9-6.1
			c-3.5-1.4-7.4-2.1-11.7-2.1c-5.8,0-10.8,1.2-15.1,3.7c-4.2,2.4-7.5,5.9-9.8,10.4c-2.3,4.5-3.4,9.8-3.4,16c0,4.7,0.6,8.9,1.9,12.6
			c1.3,3.7,3.2,6.9,5.7,9.6c2.5,2.6,5.5,4.7,8.9,6.1C773.8,102.2,777.7,102.9,782.1,102.9z"/>
	</g>
	<g>
		<polygon class="st1" points="948,17.2 948,128.2 924.7,128.2 879.6,71.4 879.6,128.2 848.6,128.2 848.6,17.2 870.3,17.2 
			916.9,75.9 916.9,17.2 		"/>
	</g>
</g>
<g>
	<rect x="10.5" y="179.1" class="st2" width="937" height="0.5"/>
	<polygon class="st1" points="948,178.6 10,178.6 10,180.1 948,180.1 948,178.6 	"/>
</g>
<g>
	<g>
		<polygon class="st0" points="40.5,139.7 40.5,167.8 32.5,167.8 32.5,154.5 27.8,161.1 22.7,161.1 18,154.5 18,167.8 10,167.8 
			10,139.7 15.8,139.7 25.2,153.2 34.6,139.7 		"/>
	</g>
	<g>
		<path class="st0" d="M110.5,139.7h-8.2l-10.9,28.1h8.2l1.6-4.7h10.1l1.6,4.7h8.4L110.5,139.7z M103.4,156.9l3-8.7l2.9,8.7H103.4z"
			/>
	</g>
	<g>
		<polygon class="st0" points="197.7,139.7 197.7,167.8 191.7,167.8 180,153.4 180,167.8 172,167.8 172,139.7 177.6,139.7 
			189.7,154.5 189.7,139.7 		"/>
	</g>
	<g>
		<path class="st0" d="M262.9,168.2c-2.5,0-4.7-0.5-6.6-1.5c-1.9-1-3.3-2.4-4.4-4.2c-1-1.8-1.6-3.8-1.6-6.2v-16.7h8.1v17.4
			c0,0.9,0.2,1.7,0.6,2.3c0.4,0.6,0.9,1.1,1.6,1.4c0.7,0.3,1.4,0.5,2.3,0.5c0.9,0,1.6-0.2,2.3-0.5c0.7-0.3,1.2-0.8,1.6-1.4
			c0.4-0.6,0.6-1.4,0.6-2.3v-17.5h8.1v16.7c0,2.3-0.5,4.4-1.6,6.1c-1,1.8-2.5,3.2-4.4,4.2C267.6,167.7,265.4,168.2,262.9,168.2z"/>
	</g>
	<g>
		<polygon class="st0" points="336,146.2 336,151.2 348.5,151.2 348.5,157.8 336,157.8 336,167.8 327.9,167.8 327.9,139.7 
			349.2,139.7 349.2,146.2 		"/>
	</g>
	<g>
		<path class="st0" d="M415.9,139.7h-8.2l-10.9,28.1h8.2l1.6-4.7h10.1l1.6,4.7h8.4L415.9,139.7z M408.7,156.9l3-8.7l2.9,8.7H408.7z"
			/>
	</g>
	<g>
		<path class="st0" d="M490.1,168.2c-2.2,0-4.2-0.4-6.1-1.1c-1.9-0.7-3.6-1.7-5-3.1c-1.4-1.3-2.5-2.9-3.3-4.6
			c-0.8-1.8-1.2-3.7-1.2-5.8c0-2.1,0.4-4,1.2-5.8c0.8-1.8,1.9-3.3,3.3-4.6c1.4-1.3,3.1-2.3,4.9-3c1.9-0.7,3.9-1.1,6.1-1.1
			c2.2,0,4.3,0.3,6.1,1c1.9,0.7,3.5,1.6,4.8,2.8l-5.4,5.3c-0.6-0.7-1.4-1.2-2.4-1.6c-0.9-0.4-2-0.6-3.2-0.6c-1.1,0-2.1,0.2-3,0.5
			c-0.9,0.3-1.7,0.8-2.3,1.5c-0.6,0.7-1.1,1.5-1.5,2.4c-0.4,0.9-0.5,2-0.5,3.1c0,1.2,0.2,2.2,0.5,3.2c0.4,0.9,0.9,1.7,1.5,2.4
			c0.6,0.7,1.4,1.2,2.3,1.5s1.9,0.5,3,0.5c1.2,0,2.3-0.2,3.2-0.6c1-0.4,1.8-0.9,2.5-1.6l5.4,5.3c-1.4,1.2-3,2.2-4.8,2.8
			C494.6,167.9,492.5,168.2,490.1,168.2z"/>
	</g>
	<g>
		<polygon class="st0" points="575.5,139.7 575.5,146.4 566.9,146.4 566.9,167.8 558.8,167.8 558.8,146.4 550.2,146.4 550.2,139.7 
					"/>
	</g>
	<g>
		<path class="st0" d="M638.9,168.2c-2.5,0-4.7-0.5-6.6-1.5c-1.9-1-3.3-2.4-4.4-4.2c-1-1.8-1.6-3.8-1.6-6.2v-16.7h8.1v17.4
			c0,0.9,0.2,1.7,0.6,2.3c0.4,0.6,0.9,1.1,1.6,1.4c0.7,0.3,1.4,0.5,2.3,0.5c0.9,0,1.6-0.2,2.3-0.5c0.7-0.3,1.2-0.8,1.6-1.4
			c0.4-0.6,0.6-1.4,0.6-2.3v-17.5h8.1v16.7c0,2.3-0.5,4.4-1.6,6.1c-1,1.8-2.5,3.2-4.4,4.2C643.6,167.7,641.4,168.2,638.9,168.2z"/>
	</g>
	<g>
		<path class="st0" d="M712,156.4v0.2h0.1L712,156.4z"/>
	</g>
	<g>
		<path class="st0" d="M720.2,156.1c0.6-0.2,1.1-0.3,1.6-0.6c1.5-0.7,2.8-1.7,3.6-3s1.3-2.7,1.3-4.4c0-1.7-0.4-3.2-1.3-4.4
			c-0.9-1.3-2-2.2-3.5-3c-1.5-0.7-3.2-1.1-5.2-1.1h-12.7v28.1h8.1v-11.4l0.1,0.2l7.3,11.2h9.1L720.2,156.1z M717.9,150.3
			c-0.6,0.5-1.4,0.8-2.5,0.8H712v-5.8h3.3c1.1,0,1.9,0.3,2.5,0.8c0.6,0.5,0.9,1.2,0.9,2.1S718.4,149.8,717.9,150.3z"/>
	</g>
	<g>
		<path class="st0" d="M778.9,167.8v-28.1h8.1v28.1H778.9z"/>
	</g>
	<g>
		<polygon class="st0" points="865.8,139.7 865.8,167.8 859.8,167.8 848.1,153.4 848.1,167.8 840,167.8 840,139.7 845.7,139.7 
			857.8,154.5 857.8,139.7 		"/>
	</g>
	<g>
		<path class="st0" d="M948,151.2v1.2c0,3.4-0.6,6.2-1.9,8.6s-3,4.2-5.2,5.4s-4.9,1.9-7.8,1.9c-2.2,0-4.3-0.4-6.2-1.1
			c-1.9-0.7-3.5-1.7-5-3.1c-1.4-1.3-2.5-2.9-3.3-4.6c-0.8-1.8-1.2-3.7-1.2-5.8c0-2.1,0.4-4,1.2-5.8c0.8-1.8,2-3.3,3.4-4.6
			c1.5-1.3,3.2-2.3,5.1-3c1.9-0.7,4-1.1,6.2-1.1c2.7,0,5,0.4,7.2,1.3c2.1,0.9,3.8,2.1,5.1,3.6l-5.4,5.3c-1-1.1-2-2-3.1-2.5
			c-1.1-0.5-2.4-0.8-3.9-0.8c-1.4,0-2.7,0.3-3.9,0.9c-1.1,0.6-2.1,1.5-2.8,2.6c-0.7,1.1-1,2.5-1,4c0,1.5,0.3,2.9,1,4
			c0.6,1.1,1.5,2,2.6,2.7s2.4,1,4,1c1.5,0,2.7-0.3,3.7-0.8c1-0.6,1.8-1.3,2.3-2.4c0.1-0.1,0.1-0.2,0.2-0.4l-7.2-0.2v-6.3H948z"/>
	</g>
</g>
<g>
	<path class="st3" d="M28,185h-7.7L10,212.9h7.7l1.5-4.7h9.5l1.5,4.7h7.9L28,185z M21.3,202.1l2.8-8.7l2.8,8.7H21.3z"/>
	<path class="st3" d="M83,199.2c-0.5-0.4-1-0.8-1.5-1.1c0.4-0.2,0.7-0.5,1-0.8c1.4-1.3,2-2.9,2-4.9c0-1.4-0.3-2.7-1-3.8
		c-0.7-1.1-1.6-2-2.9-2.6c-1.2-0.6-2.7-1-4.3-1H63.5v27.9h12.4c1.9,0,3.5-0.4,4.9-1c1.4-0.7,2.5-1.7,3.3-2.9
		c0.8-1.2,1.2-2.7,1.2-4.3C85.3,202.4,84.5,200.6,83,199.2z M74.2,190.7c0.8,0,1.5,0.2,2,0.6c0.5,0.4,0.8,1.1,0.8,2
		c0,0.9-0.3,1.5-0.8,2c-0.5,0.4-1.2,0.6-2,0.6h-3.3v-5.2H74.2z M76.9,206.5c-0.6,0.5-1.4,0.8-2.3,0.8h-3.7v-6h3.7
		c0.7,0,1.2,0.1,1.7,0.4c0.5,0.2,0.8,0.6,1.1,1c0.3,0.5,0.4,1,0.4,1.6C77.8,205.2,77.5,205.9,76.9,206.5z"/>
	<path class="st3" d="M97,212.9V185h7.6v27.9H97z"/>
	<path class="st3" d="M124.8,201l0.4,0.6v-0.7L124.8,201z M125.2,201.8l-0.1-0.2L125.2,201.8L125.2,201.8z M124.8,201l0.4,0.6v-0.7
		L124.8,201z M124.8,201l0.4,0.6v-0.7L124.8,201z"/>
	<path class="st3" d="M132.8,201.3c0.5-0.1,1-0.3,1.5-0.6c1.5-0.7,2.6-1.7,3.4-2.9c0.8-1.2,1.2-2.7,1.2-4.4c0-1.7-0.4-3.1-1.2-4.4
		c-0.8-1.3-1.9-2.2-3.3-2.9c-1.4-0.7-3.1-1.1-4.9-1.1h-12v27.9h7.6v-11.3l-0.4-0.6l0.4-0.1v0.7l0.1,0.2l6.9,11.1h8.6L132.8,201.3z
		 M125.1,190.7h3.1c1,0,1.8,0.3,2.4,0.8c0.5,0.5,0.8,1.2,0.8,2.1c0,0.9-0.3,1.6-0.8,2.1c-0.5,0.5-1.3,0.8-2.4,0.8h-3.1V190.7z"/>
	<polygon class="st3" points="179.8,185 179.8,212.9 172.3,212.9 172.3,199.8 167.9,206.3 163.1,206.3 158.7,199.8 158.7,212.9 
		151.1,212.9 151.1,185 156.6,185 165.5,198.4 174.3,185 	"/>
	<path class="st3" d="M192.8,212.9V185h7.6v27.9H192.8z"/>
	<polygon class="st3" points="237.7,185 237.7,212.9 232,212.9 221,198.7 221,212.9 213.4,212.9 213.4,185 218.7,185 230.1,199.8 
		230.1,185 	"/>
	<path class="st3" d="M278.1,196.5v1.2c0,3.3-0.6,6.2-1.8,8.5c-1.2,2.4-2.8,4.1-4.9,5.4c-2.1,1.2-4.6,1.8-7.4,1.8
		c-2.1,0-4-0.4-5.8-1.1c-1.8-0.7-3.3-1.7-4.7-3c-1.3-1.3-2.4-2.8-3.1-4.6c-0.7-1.8-1.1-3.7-1.1-5.7c0-2.1,0.4-4,1.2-5.8
		c0.8-1.8,1.8-3.3,3.2-4.6c1.4-1.3,3-2.3,4.8-3c1.8-0.7,3.8-1.1,5.8-1.1c2.5,0,4.8,0.4,6.7,1.3c2,0.9,3.6,2.1,4.8,3.6l-5.1,5.3
		c-0.9-1.1-1.9-1.9-2.9-2.5c-1-0.5-2.2-0.8-3.6-0.8c-1.3,0-2.6,0.3-3.6,0.9c-1.1,0.6-2,1.5-2.6,2.6c-0.6,1.1-1,2.4-1,3.9
		s0.3,2.8,0.9,4c0.6,1.1,1.4,2,2.5,2.7c1.1,0.6,2.3,0.9,3.7,0.9c1.4,0,2.5-0.3,3.5-0.8c0.9-0.5,1.6-1.3,2.1-2.4
		c0.1-0.1,0.1-0.2,0.2-0.4l-6.8-0.2v-6.3H278.1z"/>
	<polygon class="st3" points="313.3,185 313.3,212.9 305.8,212.9 305.8,202 297,202 297,212.9 289.4,212.9 289.4,185 297,185 
		297,195.4 305.8,195.4 305.8,185 	"/>
	<path class="st3" d="M342.3,185h-7.7l-10.3,27.9h7.7l1.5-4.7h9.5l1.5,4.7h7.9L342.3,185z M335.6,202.1l2.8-8.7l2.8,8.7H335.6z"/>
	<polygon class="st3" points="391.9,185 391.9,212.9 384.4,212.9 384.4,199.8 380,206.3 375.1,206.3 370.7,199.8 370.7,212.9 
		363.2,212.9 363.2,185 368.7,185 377.5,198.4 386.4,185 	"/>
	<polygon class="st3" points="427.8,191.5 427.8,196.5 439.6,196.5 439.6,203 427.8,203 427.8,212.9 420.2,212.9 420.2,185 
		440.2,185 440.2,191.5 	"/>
	<path class="st3" d="M466.1,185h-7.7L448,212.9h7.7l1.5-4.7h9.5l1.5,4.7h7.9L466.1,185z M459.3,202.1l2.8-8.7l2.8,8.7H459.3z"/>
	<path class="st3" d="M495.2,213.4c-2.3,0-4.3-0.3-6-1c-1.7-0.7-3.3-1.8-4.7-3.3l4.7-4.9c1,1,2,1.7,3.1,2.2c1.1,0.5,2.3,0.8,3.5,0.8
		c1,0,1.8-0.2,2.4-0.5c0.5-0.3,0.8-0.8,0.8-1.4c0-0.6-0.2-1.1-0.7-1.4c-0.5-0.4-1.1-0.7-1.8-1c-0.7-0.3-1.6-0.6-2.5-0.9
		c-0.9-0.3-1.8-0.7-2.7-1.1c-0.9-0.4-1.7-1-2.4-1.6c-0.7-0.6-1.3-1.4-1.8-2.4c-0.5-1-0.7-2.1-0.7-3.5c0-1.8,0.4-3.4,1.3-4.7
		c0.8-1.3,2-2.3,3.5-3c1.5-0.7,3.3-1,5.4-1c2,0,3.9,0.3,5.6,1c1.7,0.7,3.2,1.6,4.3,2.8l-4.8,4.9c-0.8-0.8-1.7-1.5-2.5-1.9
		c-0.8-0.4-1.7-0.6-2.7-0.6c-0.8,0-1.4,0.1-1.9,0.4c-0.5,0.3-0.7,0.7-0.7,1.2c0,0.5,0.2,1,0.7,1.4c0.5,0.4,1.1,0.7,1.8,1
		c0.7,0.3,1.6,0.6,2.5,0.9c0.9,0.3,1.8,0.7,2.7,1.1c0.9,0.4,1.7,1,2.4,1.6c0.7,0.7,1.3,1.5,1.8,2.5c0.5,1,0.7,2.2,0.7,3.6
		c0,2.8-1,5-2.9,6.6C501.6,212.6,498.8,213.4,495.2,213.4z"/>
	<polygon class="st3" points="539.5,185 539.5,191.7 531.3,191.7 531.3,212.9 523.8,212.9 523.8,191.7 515.7,191.7 515.7,185 	"/>
	<polygon class="st3" points="571.5,206.4 571.5,212.9 550.8,212.9 550.8,185 571.2,185 571.2,191.5 558.4,191.5 558.4,195.5 
		570.1,195.5 570.1,201.9 558.4,201.9 558.4,206.4 	"/>
	<polygon class="st3" points="607.9,185 607.9,212.9 602.2,212.9 591.2,198.6 591.2,212.9 583.6,212.9 583.6,185 588.9,185 
		600.3,199.8 600.3,185 	"/>
	<polygon class="st3" points="641.5,206.4 641.5,212.9 620.9,212.9 620.9,185 641.3,185 641.3,191.5 628.5,191.5 628.5,195.5 
		640.1,195.5 640.1,201.9 628.5,201.9 628.5,206.4 	"/>
	<path class="st3" d="M660.8,201l0.4,0.6v-0.7L660.8,201z M661.3,201.8l-0.1-0.2L661.3,201.8L661.3,201.8z M660.8,201l0.4,0.6v-0.7
		L660.8,201z M660.8,201l0.4,0.6v-0.7L660.8,201z"/>
	<path class="st3" d="M668.9,201.3c0.5-0.1,1-0.3,1.5-0.6c1.5-0.7,2.6-1.7,3.4-2.9c0.8-1.2,1.2-2.7,1.2-4.4c0-1.7-0.4-3.1-1.2-4.4
		c-0.8-1.3-1.9-2.2-3.3-2.9c-1.4-0.7-3.1-1.1-4.9-1.1h-12v27.9h7.6v-11.3l-0.4-0.6l0.4-0.1v0.7l0.1,0.2l6.9,11.1h8.6L668.9,201.3z
		 M661.2,190.7h3.1c1,0,1.8,0.3,2.4,0.8c0.5,0.5,0.8,1.2,0.8,2.1c0,0.9-0.3,1.6-0.8,2.1c-0.5,0.5-1.3,0.8-2.4,0.8h-3.1V190.7z"/>
	<path class="st3" d="M716.4,213.4c-2.1,0-4-0.4-5.8-1.1c-1.8-0.7-3.3-1.7-4.7-3c-1.3-1.3-2.4-2.8-3.1-4.6c-0.7-1.8-1.1-3.7-1.1-5.7
		c0-2.1,0.4-4,1.1-5.8c0.7-1.8,1.8-3.3,3.1-4.5c1.3-1.3,2.9-2.3,4.7-3c1.8-0.7,3.7-1.1,5.8-1.1c2.1,0,4,0.3,5.8,1
		c1.7,0.7,3.3,1.6,4.6,2.8l-5,5.3c-0.6-0.7-1.3-1.2-2.2-1.6s-1.9-0.6-3.1-0.6c-1,0-1.9,0.2-2.8,0.5c-0.8,0.3-1.6,0.8-2.2,1.5
		c-0.6,0.7-1.1,1.4-1.4,2.4c-0.3,0.9-0.5,2-0.5,3.1c0,1.2,0.2,2.2,0.5,3.2c0.3,0.9,0.8,1.7,1.4,2.4c0.6,0.7,1.3,1.2,2.2,1.5
		c0.8,0.4,1.8,0.5,2.8,0.5c1.1,0,2.2-0.2,3.1-0.5c0.9-0.4,1.7-0.9,2.3-1.6l5.1,5.3c-1.3,1.2-2.8,2.1-4.5,2.8
		C720.7,213.1,718.7,213.4,716.4,213.4z"/>
	<path class="st3" d="M750.3,213.5c-2.1,0-4.1-0.4-5.9-1.1c-1.8-0.7-3.3-1.7-4.7-3.1c-1.3-1.3-2.4-2.8-3.1-4.6
		c-0.7-1.8-1.1-3.7-1.1-5.8c0-2.1,0.4-4,1.1-5.8c0.7-1.8,1.7-3.3,3.1-4.6c1.3-1.3,2.9-2.3,4.6-3c1.8-0.7,3.7-1.1,5.9-1.1
		s4.1,0.4,5.9,1.1c1.8,0.7,3.3,1.7,4.6,3c1.3,1.3,2.3,2.8,3.1,4.6c0.7,1.8,1.1,3.7,1.1,5.8c0,2.1-0.4,4-1.1,5.7
		c-0.7,1.8-1.7,3.3-3.1,4.6c-1.3,1.3-2.9,2.3-4.6,3.1C754.3,213.1,752.4,213.5,750.3,213.5z M750.2,206.6c1.4,0,2.6-0.3,3.7-0.9
		c1-0.6,1.8-1.5,2.4-2.7c0.6-1.1,0.8-2.5,0.8-4c0-1.1-0.2-2.2-0.5-3.1c-0.3-0.9-0.8-1.7-1.4-2.4c-0.6-0.7-1.3-1.2-2.2-1.5
		c-0.8-0.4-1.8-0.5-2.9-0.5c-1.4,0-2.6,0.3-3.7,0.9c-1,0.6-1.8,1.5-2.4,2.6c-0.6,1.1-0.8,2.5-0.8,4c0,1.2,0.2,2.2,0.5,3.2
		c0.3,0.9,0.8,1.7,1.4,2.4c0.6,0.7,1.3,1.2,2.2,1.5C748.2,206.4,749.1,206.6,750.2,206.6z"/>
	<polygon class="st3" points="805.1,185 805.1,212.9 797.6,212.9 797.6,199.8 793.2,206.3 788.4,206.3 784,199.8 784,212.9 
		776.5,212.9 776.5,185 782,185 790.8,198.4 799.6,185 	"/>
	<path class="st3" d="M838.7,189.2c-0.8-1.3-1.9-2.4-3.3-3.1c-1.4-0.7-3-1.1-4.7-1.1h-12.5v27.9h7.6v-9.8h4.9c1.7,0,3.3-0.4,4.7-1.1
		c1.4-0.7,2.5-1.8,3.3-3.1c0.8-1.4,1.2-3,1.2-4.9C840,192.2,839.6,190.5,838.7,189.2z M832,196c-0.3,0.5-0.7,0.9-1.2,1.1
		c-0.5,0.2-1,0.4-1.6,0.4h-3.5v-6.8h3.5c0.6,0,1.1,0.1,1.6,0.4c0.5,0.2,0.9,0.6,1.2,1.1c0.3,0.5,0.5,1.1,0.5,1.9
		C832.5,194.8,832.3,195.5,832,196z"/>
	<path class="st3" d="M865.7,185h-7.8l-10.3,27.9h7.7l1.5-4.7h9.5l1.5,4.7h7.9L865.7,185z M858.9,202.1l2.8-8.7l2.8,8.7H858.9z"/>
	<polygon class="st3" points="910.8,185 910.8,212.9 905.1,212.9 894.1,198.7 894.1,212.9 886.5,212.9 886.5,185 891.8,185 
		903.2,199.8 903.2,185 	"/>
	<polygon class="st3" points="948,185 938.7,201.4 938.7,212.9 931.1,212.9 931.1,201.8 921.7,185 930.4,185 934.9,193.7 939.5,185 
			"/>
</g>
</svg>
