<?xml version="1.0" encoding="utf-8"?>
<!-- Generator: Adobe Illustrator 26.2.1, SVG Export Plug-In . SVG Version: 6.00 Build 0)  -->
<svg version="1.1" id="Layer_1" xmlns="http://www.w3.org/2000/svg" xmlns:xlink="http://www.w3.org/1999/xlink" x="0px" y="0px"
	 viewBox="0 0 180 24" style="enable-background:new 0 0 180 24;" xml:space="preserve">
<g>
	<g>
		<path d="M12.6,23.9c-1.8,0-3.4-0.3-5-0.9s-2.9-1.4-4-2.5c-1.2-1.1-2-2.4-2.7-3.8c-0.6-1.5-1-3-1-4.8c0-1.7,0.3-3.3,1-4.8
			c0.6-1.4,1.5-2.7,2.7-3.8s2.5-1.9,4-2.5s3.2-0.9,5-0.9c1.8,0,3.5,0.3,5,0.8c1.5,0.6,2.8,1.3,3.9,2.3l-4.3,4.3
			c-0.5-0.6-1.2-1-1.9-1.3c-0.8-0.3-1.6-0.5-2.6-0.5c-0.9,0-1.7,0.1-2.4,0.4C9.5,6.5,8.8,6.9,8.3,7.4C7.8,8,7.4,8.6,7.1,9.4
			C6.8,10.2,6.6,11,6.6,12c0,1,0.1,1.8,0.4,2.6c0.3,0.8,0.7,1.4,1.2,2c0.5,0.5,1.1,1,1.9,1.2c0.7,0.3,1.5,0.4,2.4,0.4
			c1,0,1.9-0.1,2.6-0.5c0.8-0.3,1.4-0.7,2-1.3l4.4,4.3c-1.2,1-2.4,1.8-3.9,2.3C16.3,23.7,14.6,23.9,12.6,23.9z"/>
		<path d="M23.8,23.5V0.5h6.5v23.1H23.8z M27.4,14.5V9.1h13v5.4H27.4z M37.8,23.5V0.5h6.5v23.1H37.8z"/>
		<path d="M46.5,23.5l8.8-23.1H62l8.7,23.1h-6.8L57.4,3.9h2.3l-6.6,19.6H46.5z M52.2,19.7v-5.1h13v5.1H52.2z"/>
		<path d="M72.6,23.5V0.5h4.7L85.9,13h-2.1l8.6-12.6h4.7v23.1h-6.5V11.1l0.9,0.3L87,18.1h-4.2l-4.7-6.7l0.9-0.3v12.5H72.6z"/>
		<path d="M101.1,23.5V0.5h6.5v23.1H101.1z M106.3,15.4v-4.7h4.2c0.5,0,1-0.1,1.4-0.3c0.4-0.2,0.8-0.5,1-0.9
			c0.3-0.4,0.4-0.9,0.4-1.6s-0.1-1.2-0.4-1.6c-0.3-0.4-0.6-0.7-1-0.9c-0.4-0.2-0.9-0.3-1.4-0.3h-4.2V0.5h5.5c1.5,0,2.9,0.3,4.1,0.9
			c1.2,0.6,2.2,1.4,2.9,2.6c0.7,1.1,1.1,2.5,1.1,4c0,1.6-0.4,2.9-1.1,4c-0.7,1.1-1.7,2-2.9,2.6c-1.2,0.6-2.6,0.9-4.1,0.9H106.3z"/>
		<path d="M122.1,23.5V0.5h6.5v23.1H122.1z"/>
		<path d="M143.9,24c-1.8,0-3.5-0.3-5-0.9c-1.5-0.6-2.9-1.4-4-2.5c-1.1-1.1-2-2.4-2.7-3.8c-0.6-1.5-0.9-3.1-0.9-4.8
			c0-1.7,0.3-3.3,0.9-4.8c0.6-1.4,1.5-2.7,2.6-3.8s2.5-1.9,4-2.5c1.5-0.6,3.2-0.9,5-0.9c1.8,0,3.5,0.3,5,0.9c1.5,0.6,2.9,1.4,4,2.5
			c1.1,1.1,2,2.4,2.6,3.8c0.6,1.5,0.9,3.1,0.9,4.8c0,1.7-0.3,3.3-0.9,4.8c-0.6,1.5-1.5,2.7-2.6,3.8c-1.1,1.1-2.5,1.9-4,2.5
			C147.4,23.7,145.8,24,143.9,24z M143.9,18.3c1.2,0,2.3-0.3,3.2-0.8c0.9-0.5,1.6-1.3,2.1-2.2c0.5-1,0.7-2.1,0.7-3.3
			c0-1-0.1-1.8-0.4-2.6c-0.3-0.8-0.7-1.4-1.2-2c-0.5-0.6-1.1-1-1.9-1.3c-0.7-0.3-1.5-0.4-2.5-0.4c-1.2,0-2.3,0.3-3.2,0.8
			c-0.9,0.5-1.6,1.2-2.1,2.2c-0.5,0.9-0.7,2-0.7,3.3c0,1,0.1,1.8,0.4,2.6c0.3,0.8,0.7,1.4,1.2,2c0.5,0.6,1.1,1,1.9,1.3
			C142.1,18.1,143,18.3,143.9,18.3z"/>
		<path d="M159.1,23.5V0.5h4.6l2,4.9v18.2H159.1z M175.1,23.5L161.6,6.7l2.1-6.3l13.5,16.8L175.1,23.5z M175.1,23.5l-1.6-5.1v-18
			h6.5v23.1H175.1z"/>
	</g>
</g>
</svg>
