<?xml version="1.0" encoding="utf-8"?>
<!-- Generator: Adobe Illustrator 26.2.1, SVG Export Plug-In . SVG Version: 6.00 Build 0)  -->
<svg version="1.1" id="Layer_1" xmlns="http://www.w3.org/2000/svg" xmlns:xlink="http://www.w3.org/1999/xlink" x="0px" y="0px"
	 viewBox="0 0 100 100" style="enable-background:new 0 0 100 100;" xml:space="preserve">
<style type="text/css">
	.st0{fill:#A50A2F;}
	.st1{fill:#FFFFFF;}
	.st2{fill:#002868;}
	.st3{fill:#BF0A30;}
	.st4{fill:#F7F7F7;}
	.st5{fill:#FFF255;}
</style>
<circle class="st0" cx="50" cy="50" r="49"/>
<g>
	<circle class="st1" cx="50" cy="50" r="48.5"/>
	<path class="st2" d="M50,2c26.5,0,48,21.5,48,48S76.5,98,50,98S2,76.5,2,50S23.5,2,50,2 M50,1C22.9,1,1,22.9,1,50s21.9,49,49,49
		s49-21.9,49-49S77.1,1,50,1L50,1z"/>
</g>
<g>
	<path class="st3" d="M76.8,85.9L63.9,48.3H36.1L23.2,85.9l9.6-2.5l6,7.9L50,58.5l11.2,32.7l6-7.9L76.8,85.9
		C76.8,85.9,76.8,85.9,76.8,85.9z"/>
	<path class="st0" d="M68.4,61.5l-4.5-13.2H36.1l-4.5,13.2c4.3,3.3,9.6,5.5,15.3,6.1l3.1-9.1l3.1,9.1C58.9,67.1,64.1,64.9,68.4,61.5
		z"/>
	<circle class="st2" cx="50" cy="37.7" r="27.4"/>
	<path class="st2" d="M50,10.3c-15.1,0-27.4,12.3-27.4,27.4c0,15.1,12.3,27.4,27.4,27.4s27.4-12.3,27.4-27.4
		C77.4,22.5,65.1,10.3,50,10.3z M50,61c-12.9,0-23.3-10.4-23.3-23.3S37.1,14.4,50,14.4s23.3,10.4,23.3,23.3S62.9,61,50,61z"/>
	<path class="st1" d="M50,14.4c-12.9,0-23.3,10.4-23.3,23.3S37.1,61,50,61s23.3-10.4,23.3-23.3S62.9,14.4,50,14.4z M50,58.2
		c-11.4,0-20.6-9.2-20.6-20.6S38.6,17.1,50,17.1s20.6,9.2,20.6,20.6S61.4,58.2,50,58.2z"/>
	<path class="st4" d="M50.1,46.3l-6.8,3.6c-1.1,0.6-2.4-0.4-2.2-1.6l1.3-7.5l-5.5-5.3c-0.9-0.9-0.4-2.4,0.8-2.6l7.6-1.1l3.4-6.8
		c0.6-1.1,2.2-1.1,2.7,0l3.4,6.8l7.6,1.1c1.3,0.2,1.8,1.7,0.8,2.6l-5.5,5.3l1.3,7.5c0.2,1.2-1.1,2.2-2.2,1.6L50.1,46.3z"/>
	<path class="st0" d="M50.1,24c0.5,0,1.1,0.3,1.4,0.8l3.4,6.8c0,0,0,0,0.1,0.1l7.3,1.1c1.3,0.2,1.9,1.8,0.9,2.8l-5.3,5.2
		c0,0,0,0.1,0,0.1l1.3,7.5c0.2,1-0.6,1.8-1.5,1.8c-0.2,0-0.5-0.1-0.7-0.2l-6.7-3.5c0,0-0.1,0-0.1,0l-6.7,3.5
		c-0.2,0.1-0.5,0.2-0.7,0.2c-0.9,0-1.7-0.8-1.5-1.8l1.3-7.5c0,0,0-0.1,0-0.1l-5.3-5.2c-1-0.9-0.4-2.6,0.9-2.8l7.3-1.1
		c0,0,0.1,0,0.1-0.1l3.4-6.8C49,24.2,49.6,24,50.1,24 M50.1,21.2c-1.6,0-3.1,0.9-3.8,2.4l-2.7,5.5c0,0,0,0-0.1,0.1L37.6,30
		c-1.4,0.2-2.7,1-3.4,2.3c-0.9,1.7-0.5,3.7,0.8,5l4.4,4.3c0,0,0,0.1,0,0.1l-1,5.9c-0.1,0.8-0.1,1.6,0.2,2.4c0.7,1.7,2.3,2.7,4,2.7
		c0.7,0,1.4-0.2,2-0.5l5.4-2.9c0,0,0.1,0,0.1,0l5.4,2.9c0.6,0.3,1.3,0.5,2,0.5c1.7,0,3.3-1,4-2.7c0.3-0.7,0.3-1.6,0.2-2.4l-1-5.9
		c0,0,0-0.1,0-0.1l4.3-4.1c1.1-1,1.6-2.5,1.4-4c-0.4-1.8-1.8-3.1-3.6-3.4l-6.1-0.9c0,0-0.1,0-0.1-0.1l-2.7-5.5
		C53.2,22.1,51.7,21.2,50.1,21.2L50.1,21.2z"/>
	<path class="st1" d="M62.4,32.8l-7.6-1.1l-3.4-6.8c-0.6-1.1-2.2-1.1-2.7,0l-2.2,4.4l12,20.4c0.4-0.3,0.6-0.8,0.5-1.4l-1.3-7.5
		l5.5-5.3C64.1,34.5,63.6,32.9,62.4,32.8z"/>
	<g>
		<path class="st5" d="M66.3,23.4c-2.4-0.5-4.2-2.4-4.8-4.8c0-0.2-0.3-0.2-0.3,0c-0.5,2.4-2.4,4.2-4.8,4.8c-0.2,0-0.2,0.3,0,0.3
			c2.4,0.5,4.2,2.4,4.8,4.8c0,0.2,0.3,0.2,0.3,0c0.5-2.4,2.4-4.2,4.8-4.8C66.5,23.7,66.5,23.4,66.3,23.4z"/>
		<path class="st5" d="M58.1,31.1c-1.4-0.4-2.6-1.5-2.9-2.9c0-0.1-0.2-0.1-0.3,0c-0.4,1.4-1.5,2.6-2.9,2.9c-0.1,0-0.1,0.2,0,0.3
			c1.4,0.4,2.6,1.5,2.9,2.9c0,0.1,0.2,0.1,0.3,0c0.4-1.4,1.5-2.6,2.9-2.9C58.3,31.4,58.3,31.2,58.1,31.1z"/>
	</g>
	<g>
	</g>
	<g>
	</g>
	<g>
	</g>
	<g>
	</g>
	<g>
	</g>
	<g>
	</g>
	<g>
	</g>
	<g>
	</g>
	<g>
	</g>
	<g>
	</g>
	<g>
	</g>
	<g>
	</g>
	<g>
	</g>
	<g>
	</g>
	<g>
	</g>
</g>
</svg>
