<?xml version="1.0" encoding="utf-8"?>
<!-- Generator: Adobe Illustrator 26.2.1, SVG Export Plug-In . SVG Version: 6.00 Build 0)  -->
<svg version="1.1" xmlns="http://www.w3.org/2000/svg" xmlns:xlink="http://www.w3.org/1999/xlink" x="0px" y="0px"
	 viewBox="0 0 100 100" style="enable-background:new 0 0 100 100;" xml:space="preserve">
<style type="text/css">
	.st0{fill:#FFFFFF;}
	.st1{fill:#002868;}
	.st2{clip-path:url(#SVGID_00000143608200770111645080000002042786248685740979_);}
	.st3{clip-path:url(#SVGID_00000031894790004831232200000012712917969727198127_);fill:#002868;}
	.st4{clip-path:url(#SVGID_00000031894790004831232200000012712917969727198127_);fill:#FFFFFF;}
	.st5{clip-path:url(#SVGID_00000031894790004831232200000012712917969727198127_);}
	.st6{clip-path:url(#SVGID_00000134936061495330090260000012279191464511318181_);}
	.st7{clip-path:url(#SVGID_00000134936061495330090260000012279191464511318181_);fill:#BF0A30;}
	.st8{fill:#BF0A30;}
</style>
<g id="Layer_1">
	<g>
		<circle class="st0" cx="50" cy="50" r="48.5"/>
		<path class="st1" d="M50,2c26.5,0,48,21.5,48,48S76.5,98,50,98S2,76.5,2,50S23.5,2,50,2 M50,1C22.9,1,1,22.9,1,50s21.9,49,49,49
			s49-21.9,49-49S77.1,1,50,1L50,1z"/>
	</g>
</g>
<g id="Layer_2">
	<g>
		<defs>
			<circle id="SVGID_1_" cx="50" cy="50" r="33.9"/>
		</defs>
		<clipPath id="SVGID_00000110451599103573991100000010740435136001435284_">
			<use xlink:href="#SVGID_1_"  style="overflow:visible;"/>
		</clipPath>
		<g style="clip-path:url(#SVGID_00000110451599103573991100000010740435136001435284_);">
			<g>
				<defs>
					<rect id="SVGID_00000114763937949375295710000012017267206253279393_" x="3.5" y="16.1" width="126" height="79.2"/>
				</defs>
				<clipPath id="SVGID_00000035528007218640745310000017435031124280109446_">
					<use xlink:href="#SVGID_00000114763937949375295710000012017267206253279393_"  style="overflow:visible;"/>
				</clipPath>
				
					<rect x="3.5" y="16.1" style="clip-path:url(#SVGID_00000035528007218640745310000017435031124280109446_);fill:#002868;" width="47.5" height="36.7"/>
				<polygon style="clip-path:url(#SVGID_00000035528007218640745310000017435031124280109446_);fill:#FFFFFF;" points="6.4,16.7 
					6.9,18.4 8.5,18.4 7.2,19.5 7.7,21.2 6.4,20.1 5.2,21.2 5.6,19.5 4.4,18.4 6,18.4 				"/>
				<polygon style="clip-path:url(#SVGID_00000035528007218640745310000017435031124280109446_);fill:#FFFFFF;" points="14.7,16.7 
					15.2,18.4 16.8,18.4 15.5,19.5 16,21.2 14.7,20.1 13.4,21.2 13.9,19.5 12.6,18.4 14.2,18.4 				"/>
				<polygon style="clip-path:url(#SVGID_00000035528007218640745310000017435031124280109446_);fill:#FFFFFF;" points="23,16.7 
					23.4,18.4 25,18.4 23.7,19.5 24.2,21.2 23,20.1 21.7,21.2 22.2,19.5 20.9,18.4 22.5,18.4 				"/>
				<polygon style="clip-path:url(#SVGID_00000035528007218640745310000017435031124280109446_);fill:#FFFFFF;" points="31.2,16.7 
					31.7,18.4 33.3,18.4 32,19.5 32.5,21.2 31.2,20.1 29.9,21.2 30.4,19.5 29.2,18.4 30.7,18.4 				"/>
				<polygon style="clip-path:url(#SVGID_00000035528007218640745310000017435031124280109446_);fill:#FFFFFF;" points="39.5,16.7 
					40,18.4 41.5,18.4 40.3,19.5 40.8,21.2 39.5,20.1 38.2,21.2 38.7,19.5 37.4,18.4 39,18.4 				"/>
				<polygon style="clip-path:url(#SVGID_00000035528007218640745310000017435031124280109446_);fill:#FFFFFF;" points="47.7,16.7 
					48.2,18.4 49.8,18.4 48.5,19.5 49,21.2 47.7,20.1 46.5,21.2 47,19.5 45.7,18.4 47.3,18.4 				"/>
				<polygon style="clip-path:url(#SVGID_00000035528007218640745310000017435031124280109446_);fill:#FFFFFF;" points="6.8,24.5 
					7.3,26.2 8.9,26.2 7.6,27.2 8.1,28.9 6.8,27.9 5.6,28.9 6,27.2 4.8,26.2 6.4,26.2 				"/>
				<polygon style="clip-path:url(#SVGID_00000035528007218640745310000017435031124280109446_);fill:#FFFFFF;" points="15.1,24.5 
					15.6,26.2 17.2,26.2 15.9,27.2 16.4,28.9 15.1,27.9 13.8,28.9 14.3,27.2 13,26.2 14.6,26.2 				"/>
				<polygon style="clip-path:url(#SVGID_00000035528007218640745310000017435031124280109446_);fill:#FFFFFF;" points="23.4,24.5 
					23.8,26.2 25.4,26.2 24.1,27.2 24.6,28.9 23.4,27.9 22.1,28.9 22.6,27.2 21.3,26.2 22.9,26.2 				"/>
				<polygon style="clip-path:url(#SVGID_00000035528007218640745310000017435031124280109446_);fill:#FFFFFF;" points="31.6,24.5 
					32.1,26.2 33.7,26.2 32.4,27.2 32.9,28.9 31.6,27.9 30.3,28.9 30.8,27.2 29.6,26.2 31.1,26.2 				"/>
				<polygon style="clip-path:url(#SVGID_00000035528007218640745310000017435031124280109446_);fill:#FFFFFF;" points="39.9,24.5 
					40.4,26.2 41.9,26.2 40.7,27.2 41.2,28.9 39.9,27.9 38.6,28.9 39.1,27.2 37.8,26.2 39.4,26.2 				"/>
				<polygon style="clip-path:url(#SVGID_00000035528007218640745310000017435031124280109446_);fill:#FFFFFF;" points="48.1,24.5 
					48.6,26.2 50.2,26.2 48.9,27.2 49.4,28.9 48.1,27.9 46.9,28.9 47.4,27.2 46.1,26.2 47.7,26.2 				"/>
				<polygon style="clip-path:url(#SVGID_00000035528007218640745310000017435031124280109446_);fill:#FFFFFF;" points="6.4,32.2 
					6.9,33.9 8.5,33.9 7.2,35 7.7,36.6 6.4,35.6 5.2,36.6 5.6,35 4.4,33.9 6,33.9 				"/>
				<polygon style="clip-path:url(#SVGID_00000035528007218640745310000017435031124280109446_);fill:#FFFFFF;" points="14.7,32.2 
					15.2,33.9 16.8,33.9 15.5,35 16,36.6 14.7,35.6 13.4,36.6 13.9,35 12.6,33.9 14.2,33.9 				"/>
				<polygon style="clip-path:url(#SVGID_00000035528007218640745310000017435031124280109446_);fill:#FFFFFF;" points="23,32.2 
					23.4,33.9 25,33.9 23.7,35 24.2,36.6 23,35.6 21.7,36.6 22.2,35 20.9,33.9 22.5,33.9 				"/>
				<polygon style="clip-path:url(#SVGID_00000035528007218640745310000017435031124280109446_);fill:#FFFFFF;" points="31.2,32.2 
					31.7,33.9 33.3,33.9 32,35 32.5,36.6 31.2,35.6 29.9,36.6 30.4,35 29.2,33.9 30.7,33.9 				"/>
				<polygon style="clip-path:url(#SVGID_00000035528007218640745310000017435031124280109446_);fill:#FFFFFF;" points="39.5,32.2 
					40,33.9 41.5,33.9 40.3,35 40.8,36.6 39.5,35.6 38.2,36.6 38.7,35 37.4,33.9 39,33.9 				"/>
				<polygon style="clip-path:url(#SVGID_00000035528007218640745310000017435031124280109446_);fill:#FFFFFF;" points="47.7,32.2 
					48.2,33.9 49.8,33.9 48.5,35 49,36.6 47.7,35.6 46.5,36.6 47,35 45.7,33.9 47.3,33.9 				"/>
				<polygon style="clip-path:url(#SVGID_00000035528007218640745310000017435031124280109446_);fill:#FFFFFF;" points="6.7,40 
					7.1,41.7 8.7,41.7 7.4,42.7 7.9,44.4 6.7,43.3 5.4,44.4 5.9,42.7 4.6,41.7 6.2,41.7 				"/>
				<polygon style="clip-path:url(#SVGID_00000035528007218640745310000017435031124280109446_);fill:#FFFFFF;" points="14.9,40 
					15.4,41.7 17,41.7 15.7,42.7 16.2,44.4 14.9,43.3 13.6,44.4 14.1,42.7 12.9,41.7 14.4,41.7 				"/>
				<polygon style="clip-path:url(#SVGID_00000035528007218640745310000017435031124280109446_);fill:#FFFFFF;" points="23.2,40 
					23.7,41.7 25.2,41.7 24,42.7 24.5,44.4 23.2,43.3 21.9,44.4 22.4,42.7 21.1,41.7 22.7,41.7 				"/>
				<polygon style="clip-path:url(#SVGID_00000035528007218640745310000017435031124280109446_);fill:#FFFFFF;" points="31.4,40 
					31.9,41.7 33.5,41.7 32.2,42.7 32.7,44.4 31.4,43.3 30.2,44.4 30.6,42.7 29.4,41.7 31,41.7 				"/>
				<polygon style="clip-path:url(#SVGID_00000035528007218640745310000017435031124280109446_);fill:#FFFFFF;" points="39.7,40 
					40.2,41.7 41.8,41.7 40.5,42.7 41,44.4 39.7,43.3 38.4,44.4 38.9,42.7 37.6,41.7 39.2,41.7 				"/>
				<polygon style="clip-path:url(#SVGID_00000035528007218640745310000017435031124280109446_);fill:#FFFFFF;" points="48,40 
					48.4,41.7 50,41.7 48.7,42.7 49.2,44.4 48,43.3 46.7,44.4 47.2,42.7 45.9,41.7 47.5,41.7 				"/>
				<polygon style="clip-path:url(#SVGID_00000035528007218640745310000017435031124280109446_);fill:#FFFFFF;" points="10.6,43.8 
					11.1,45.5 12.6,45.5 11.4,46.6 11.8,48.3 10.6,47.2 9.3,48.3 9.8,46.6 8.5,45.5 10.1,45.5 				"/>
				<polygon style="clip-path:url(#SVGID_00000035528007218640745310000017435031124280109446_);fill:#FFFFFF;" points="18.8,43.8 
					19.3,45.5 20.9,45.5 19.6,46.6 20.1,48.3 18.8,47.2 17.6,48.3 18,46.6 16.8,45.5 18.3,45.5 				"/>
				<polygon style="clip-path:url(#SVGID_00000035528007218640745310000017435031124280109446_);fill:#FFFFFF;" points="27.1,43.8 
					27.6,45.5 29.2,45.5 27.9,46.6 28.4,48.3 27.1,47.2 25.8,48.3 26.3,46.6 25,45.5 26.6,45.5 				"/>
				<polygon style="clip-path:url(#SVGID_00000035528007218640745310000017435031124280109446_);fill:#FFFFFF;" points="35.4,43.8 
					35.8,45.5 37.4,45.5 36.1,46.6 36.6,48.3 35.4,47.2 34.1,48.3 34.6,46.6 33.3,45.5 34.9,45.5 				"/>
				<polygon style="clip-path:url(#SVGID_00000035528007218640745310000017435031124280109446_);fill:#FFFFFF;" points="43.6,43.8 
					44.1,45.5 45.7,45.5 44.4,46.6 44.9,48.3 43.6,47.2 42.3,48.3 42.8,46.6 41.5,45.5 43.1,45.5 				"/>
				<polygon style="clip-path:url(#SVGID_00000035528007218640745310000017435031124280109446_);fill:#FFFFFF;" points="10.6,36.1 
					11.1,37.8 12.6,37.8 11.4,38.8 11.8,40.5 10.6,39.5 9.3,40.5 9.8,38.8 8.5,37.8 10.1,37.8 				"/>
				<polygon style="clip-path:url(#SVGID_00000035528007218640745310000017435031124280109446_);fill:#FFFFFF;" points="18.8,36.1 
					19.3,37.8 20.9,37.8 19.6,38.8 20.1,40.5 18.8,39.5 17.6,40.5 18,38.8 16.8,37.8 18.3,37.8 				"/>
				<polygon style="clip-path:url(#SVGID_00000035528007218640745310000017435031124280109446_);fill:#FFFFFF;" points="27.1,36.1 
					27.6,37.8 29.2,37.8 27.9,38.8 28.4,40.5 27.1,39.5 25.8,40.5 26.3,38.8 25,37.8 26.6,37.8 				"/>
				<polygon style="clip-path:url(#SVGID_00000035528007218640745310000017435031124280109446_);fill:#FFFFFF;" points="35.4,36.1 
					35.8,37.8 37.4,37.8 36.1,38.8 36.6,40.5 35.4,39.5 34.1,40.5 34.6,38.8 33.3,37.8 34.9,37.8 				"/>
				<polygon style="clip-path:url(#SVGID_00000035528007218640745310000017435031124280109446_);fill:#FFFFFF;" points="43.6,36.1 
					44.1,37.8 45.7,37.8 44.4,38.8 44.9,40.5 43.6,39.5 42.3,40.5 42.8,38.8 41.5,37.8 43.1,37.8 				"/>
				<polygon style="clip-path:url(#SVGID_00000035528007218640745310000017435031124280109446_);fill:#FFFFFF;" points="10.6,28.3 
					11.1,30 12.6,30 11.4,31.1 11.8,32.8 10.6,31.7 9.3,32.8 9.8,31.1 8.5,30 10.1,30 				"/>
				<polygon style="clip-path:url(#SVGID_00000035528007218640745310000017435031124280109446_);fill:#FFFFFF;" points="18.8,28.3 
					19.3,30 20.9,30 19.6,31.1 20.1,32.8 18.8,31.7 17.6,32.8 18,31.1 16.8,30 18.3,30 				"/>
				<polygon style="clip-path:url(#SVGID_00000035528007218640745310000017435031124280109446_);fill:#FFFFFF;" points="27.1,28.3 
					27.6,30 29.2,30 27.9,31.1 28.4,32.8 27.1,31.7 25.8,32.8 26.3,31.1 25,30 26.6,30 				"/>
				<polygon style="clip-path:url(#SVGID_00000035528007218640745310000017435031124280109446_);fill:#FFFFFF;" points="35.4,28.3 
					35.8,30 37.4,30 36.1,31.1 36.6,32.8 35.4,31.7 34.1,32.8 34.6,31.1 33.3,30 34.9,30 				"/>
				<polygon style="clip-path:url(#SVGID_00000035528007218640745310000017435031124280109446_);fill:#FFFFFF;" points="43.6,28.3 
					44.1,30 45.7,30 44.4,31.1 44.9,32.8 43.6,31.7 42.3,32.8 42.8,31.1 41.5,30 43.1,30 				"/>
				<polygon style="clip-path:url(#SVGID_00000035528007218640745310000017435031124280109446_);fill:#FFFFFF;" points="10.6,20.6 
					11.1,22.3 12.6,22.3 11.4,23.3 11.8,25 10.6,24 9.3,25 9.8,23.3 8.5,22.3 10.1,22.3 				"/>
				<polygon style="clip-path:url(#SVGID_00000035528007218640745310000017435031124280109446_);fill:#FFFFFF;" points="18.8,20.6 
					19.3,22.3 20.9,22.3 19.6,23.3 20.1,25 18.8,24 17.6,25 18,23.3 16.8,22.3 18.3,22.3 				"/>
				<polygon style="clip-path:url(#SVGID_00000035528007218640745310000017435031124280109446_);fill:#FFFFFF;" points="27.1,20.6 
					27.6,22.3 29.2,22.3 27.9,23.3 28.4,25 27.1,24 25.8,25 26.3,23.3 25,22.3 26.6,22.3 				"/>
				<polygon style="clip-path:url(#SVGID_00000035528007218640745310000017435031124280109446_);fill:#FFFFFF;" points="35.4,20.6 
					35.8,22.3 37.4,22.3 36.1,23.3 36.6,25 35.4,24 34.1,25 34.6,23.3 33.3,22.3 34.9,22.3 				"/>
				<polygon style="clip-path:url(#SVGID_00000035528007218640745310000017435031124280109446_);fill:#FFFFFF;" points="43.6,20.6 
					44.1,22.3 45.7,22.3 44.4,23.3 44.9,25 43.6,24 42.3,25 42.8,23.3 41.5,22.3 43.1,22.3 				"/>
				<polygon style="clip-path:url(#SVGID_00000035528007218640745310000017435031124280109446_);fill:#FFFFFF;" points="6.4,47.7 
					6.9,49.4 8.5,49.4 7.2,50.4 7.7,52.1 6.4,51.1 5.2,52.1 5.6,50.4 4.4,49.4 6,49.4 				"/>
				<polygon style="clip-path:url(#SVGID_00000035528007218640745310000017435031124280109446_);fill:#FFFFFF;" points="14.7,47.7 
					15.2,49.4 16.8,49.4 15.5,50.4 16,52.1 14.7,51.1 13.4,52.1 13.9,50.4 12.6,49.4 14.2,49.4 				"/>
				<polygon style="clip-path:url(#SVGID_00000035528007218640745310000017435031124280109446_);fill:#FFFFFF;" points="23,47.7 
					23.4,49.4 25,49.4 23.7,50.4 24.2,52.1 23,51.1 21.7,52.1 22.2,50.4 20.9,49.4 22.5,49.4 				"/>
				<polygon style="clip-path:url(#SVGID_00000035528007218640745310000017435031124280109446_);fill:#FFFFFF;" points="31.2,47.7 
					31.7,49.4 33.3,49.4 32,50.4 32.5,52.1 31.2,51.1 29.9,52.1 30.4,50.4 29.2,49.4 30.7,49.4 				"/>
				<polygon style="clip-path:url(#SVGID_00000035528007218640745310000017435031124280109446_);fill:#FFFFFF;" points="39.5,47.7 
					40,49.4 41.5,49.4 40.3,50.4 40.8,52.1 39.5,51.1 38.2,52.1 38.7,50.4 37.4,49.4 39,49.4 				"/>
				<polygon style="clip-path:url(#SVGID_00000035528007218640745310000017435031124280109446_);fill:#FFFFFF;" points="47.7,47.7 
					48.2,49.4 49.8,49.4 48.5,50.4 49,52.1 47.7,51.1 46.5,52.1 47,50.4 45.7,49.4 47.3,49.4 				"/>
				<g style="clip-path:url(#SVGID_00000035528007218640745310000017435031124280109446_);">
					<defs>
						<rect id="SVGID_00000097471329231756188600000006947164199026369177_" x="3.5" y="16.1" width="126" height="79.2"/>
					</defs>
					<clipPath id="SVGID_00000169522722498483311210000014623422944870736567_">
						<use xlink:href="#SVGID_00000097471329231756188600000006947164199026369177_"  style="overflow:visible;"/>
					</clipPath>
					<path style="clip-path:url(#SVGID_00000169522722498483311210000014623422944870736567_);" d="M11.4,85.7l0.5,8h-1.7l-0.1-3.4
						c0-0.3,0-0.6,0-0.9c0-0.3,0-0.5,0-0.7c0-0.2,0-0.4,0-0.7c0-0.2,0-0.5,0.1-0.7l-0.9,5H7.9l-1-5c0,0.3,0,0.5,0.1,0.7
						c0,0.2,0,0.5,0,0.7c0,0.2,0,0.5,0,0.7c0,0.3,0,0.5,0,0.9L7,93.7H5.4l0.5-8h1.9l0.9,5.2l0.8-5.2H11.4z"/>
					<path style="clip-path:url(#SVGID_00000169522722498483311210000014623422944870736567_);" d="M16.7,92h-2.3l-0.4,1.7h-2l2.4-8
						h2.3l2.4,8h-2L16.7,92z M14.7,90.6h1.7l-0.9-3.5L14.7,90.6z"/>
					<path style="clip-path:url(#SVGID_00000169522722498483311210000014623422944870736567_);" d="M25.7,89.7
						c0,0.7-0.1,1.2-0.2,1.7c-0.1,0.5-0.3,0.8-0.6,1.2c-0.2,0.3-0.5,0.6-0.9,0.7c-0.3,0.2-0.7,0.3-1.1,0.4c-0.4,0.1-0.8,0.1-1.2,0.1
						h-2.2v-8h2c0.5,0,1,0.1,1.5,0.2c0.5,0.1,0.9,0.3,1.3,0.6c0.4,0.3,0.7,0.7,0.9,1.2C25.5,88.2,25.7,88.9,25.7,89.7 M23.7,89.7
						c0-0.5,0-1-0.1-1.3c-0.1-0.3-0.2-0.6-0.4-0.8c-0.2-0.2-0.3-0.3-0.6-0.4c-0.2-0.1-0.4-0.1-0.7-0.1h-0.4v5.3h0.4
						c0.3,0,0.5,0,0.7-0.1c0.2-0.1,0.4-0.2,0.6-0.4c0.2-0.2,0.3-0.5,0.4-0.8C23.7,90.7,23.7,90.2,23.7,89.7"/>
					<polygon style="clip-path:url(#SVGID_00000169522722498483311210000014623422944870736567_);" points="28.9,87.1 28.9,89 
						31.7,89 31.7,90.3 28.9,90.3 28.9,92.4 32.3,92.4 32.3,93.7 27,93.7 27,85.7 32.3,85.7 32.1,87.1 					"/>
					<polygon style="clip-path:url(#SVGID_00000169522722498483311210000014623422944870736567_);" points="45.9,85.7 45.9,87.1 
						44.2,87.1 44.2,92.3 45.9,92.3 45.9,93.7 40.7,93.7 40.7,92.3 42.3,92.3 42.3,87.1 40.7,87.1 40.7,85.7 					"/>
					<path style="clip-path:url(#SVGID_00000169522722498483311210000014623422944870736567_);" d="M50.8,93.7l-2.1-6.4
						c0,0.2,0.1,0.4,0.1,0.6c0,0.2,0.1,0.5,0.1,0.8c0,0.3,0.1,0.6,0.1,0.9c0,0.3,0,0.7,0,1v3h-1.6v-8h2.4l2,6.4
						c0-0.2-0.1-0.5-0.1-0.9c0-0.3-0.1-0.7-0.1-1.1c0-0.4,0-0.9,0-1.3v-3.1h1.6v8H50.8z"/>
					<polygon style="clip-path:url(#SVGID_00000169522722498483311210000014623422944870736567_);" points="65,87.2 65,93.7 
						63.1,93.7 63.1,87.2 60.9,87.2 60.9,85.7 67.3,85.7 67.1,87.2 					"/>
					<polygon style="clip-path:url(#SVGID_00000169522722498483311210000014623422944870736567_);" points="72,93.7 72,90.4 
						70,90.4 70,93.7 68.1,93.7 68.1,85.7 70,85.7 70,88.8 72,88.8 72,85.7 73.8,85.7 73.8,93.7 					"/>
					<polygon style="clip-path:url(#SVGID_00000169522722498483311210000014623422944870736567_);" points="77.4,87.1 77.4,89 
						80.2,89 80.2,90.3 77.4,90.3 77.4,92.4 80.8,92.4 80.8,93.7 75.5,93.7 75.5,85.7 80.8,85.7 80.6,87.1 					"/>
					<path style="clip-path:url(#SVGID_00000169522722498483311210000014623422944870736567_);" d="M94.7,85.7v5.3
						c0,0.5-0.1,1-0.3,1.5c-0.2,0.4-0.6,0.8-1,1c-0.4,0.3-1,0.4-1.7,0.4c-0.7,0-1.2-0.1-1.7-0.4c-0.4-0.2-0.8-0.6-1-1
						c-0.2-0.4-0.3-0.9-0.3-1.5v-5.3h1.9v4.6c0,0.7,0.1,1.3,0.2,1.6c0.1,0.4,0.4,0.5,0.9,0.5c0.5,0,0.8-0.2,0.9-0.5
						c0.1-0.4,0.2-0.9,0.2-1.6v-4.6H94.7z"/>
					<path style="clip-path:url(#SVGID_00000169522722498483311210000014623422944870736567_);" d="M97.4,92.6
						c0-0.2,0.1-0.4,0.2-0.6c0.1-0.2,0.3-0.4,0.5-0.5c0.2-0.1,0.4-0.2,0.6-0.2c0.2,0,0.5,0.1,0.6,0.2c0.2,0.1,0.3,0.3,0.5,0.5
						c0.1,0.2,0.2,0.4,0.2,0.6c0,0.2-0.1,0.4-0.2,0.6c-0.1,0.2-0.3,0.4-0.5,0.5c-0.2,0.1-0.4,0.2-0.6,0.2c-0.2,0-0.5-0.1-0.6-0.2
						c-0.2-0.1-0.4-0.3-0.5-0.5C97.5,93.1,97.4,92.9,97.4,92.6"/>
					<path style="clip-path:url(#SVGID_00000169522722498483311210000014623422944870736567_);" d="M108.7,91.4
						c0,0.5-0.1,0.9-0.4,1.3c-0.3,0.4-0.6,0.7-1.1,0.9c-0.5,0.2-1.1,0.3-1.7,0.3c-0.8,0-1.4-0.1-1.9-0.3c-0.5-0.2-0.9-0.5-1.3-0.8
						l1-1.1c0.3,0.3,0.6,0.5,1,0.6c0.4,0.1,0.8,0.2,1.2,0.2c0.3,0,0.5,0,0.7-0.1c0.2-0.1,0.4-0.2,0.5-0.3c0.1-0.1,0.2-0.3,0.2-0.5
						c0-0.2,0-0.4-0.1-0.5c-0.1-0.1-0.2-0.3-0.4-0.4c-0.2-0.1-0.5-0.2-0.9-0.3c-0.6-0.2-1.1-0.4-1.5-0.6c-0.4-0.2-0.7-0.5-0.8-0.8
						c-0.2-0.3-0.3-0.7-0.3-1.1c0-0.5,0.1-0.9,0.4-1.3c0.3-0.3,0.6-0.6,1.1-0.8c0.5-0.2,1-0.3,1.5-0.3c0.6,0,1.2,0.1,1.6,0.3
						c0.5,0.2,0.9,0.4,1.2,0.8l-0.9,1c-0.3-0.2-0.6-0.4-0.9-0.5c-0.3-0.1-0.6-0.2-1-0.2c-0.2,0-0.4,0-0.6,0.1
						c-0.2,0.1-0.3,0.1-0.4,0.3c-0.1,0.1-0.2,0.3-0.2,0.4c0,0.2,0,0.3,0.1,0.4c0.1,0.1,0.3,0.2,0.5,0.3c0.2,0.1,0.6,0.2,1,0.4
						c0.5,0.2,0.9,0.3,1.3,0.6c0.4,0.2,0.6,0.5,0.8,0.8C108.6,90.5,108.7,90.9,108.7,91.4"/>
					<path style="clip-path:url(#SVGID_00000169522722498483311210000014623422944870736567_);" d="M111.3,92.6
						c0-0.2,0.1-0.4,0.2-0.6c0.1-0.2,0.3-0.4,0.5-0.5c0.2-0.1,0.4-0.2,0.6-0.2c0.2,0,0.5,0.1,0.6,0.2c0.2,0.1,0.3,0.3,0.5,0.5
						c0.1,0.2,0.2,0.4,0.2,0.6c0,0.2-0.1,0.4-0.2,0.6c-0.1,0.2-0.3,0.4-0.5,0.5c-0.2,0.1-0.4,0.2-0.6,0.2c-0.2,0-0.5-0.1-0.6-0.2
						c-0.2-0.1-0.4-0.3-0.5-0.5C111.3,93.1,111.3,92.9,111.3,92.6"/>
					<path style="clip-path:url(#SVGID_00000169522722498483311210000014623422944870736567_);" d="M120.6,92h-2.3l-0.4,1.7h-2
						l2.4-8h2.3l2.4,8h-2L120.6,92z M118.6,90.6h1.7l-0.9-3.5L118.6,90.6z"/>
					<path style="clip-path:url(#SVGID_00000169522722498483311210000014623422944870736567_);" d="M125.1,92.6
						c0-0.2,0.1-0.4,0.2-0.6c0.1-0.2,0.3-0.4,0.5-0.5c0.2-0.1,0.4-0.2,0.6-0.2c0.2,0,0.5,0.1,0.6,0.2c0.2,0.1,0.3,0.3,0.5,0.5
						c0.1,0.2,0.2,0.4,0.2,0.6c0,0.2-0.1,0.4-0.2,0.6c-0.1,0.2-0.3,0.4-0.5,0.5c-0.2,0.1-0.4,0.2-0.6,0.2c-0.2,0-0.5-0.1-0.6-0.2
						c-0.2-0.1-0.4-0.3-0.5-0.5C125.2,93.1,125.1,92.9,125.1,92.6"/>
					
						<rect x="51" y="16.1" style="clip-path:url(#SVGID_00000169522722498483311210000014623422944870736567_);fill:#BF0A30;" width="78.5" height="5.7"/>
					
						<rect x="51" y="26.3" style="clip-path:url(#SVGID_00000169522722498483311210000014623422944870736567_);fill:#BF0A30;" width="78.5" height="5.9"/>
					
						<rect x="51" y="36.6" style="clip-path:url(#SVGID_00000169522722498483311210000014623422944870736567_);fill:#BF0A30;" width="78.5" height="5.9"/>
					
						<rect x="51" y="47" style="clip-path:url(#SVGID_00000169522722498483311210000014623422944870736567_);fill:#BF0A30;" width="78.5" height="5.9"/>
					
						<rect x="3.5" y="57.3" style="clip-path:url(#SVGID_00000169522722498483311210000014623422944870736567_);fill:#BF0A30;" width="126" height="5.9"/>
					
						<rect x="3.5" y="67.6" style="clip-path:url(#SVGID_00000169522722498483311210000014623422944870736567_);fill:#BF0A30;" width="126" height="5.9"/>
					
						<rect x="3.5" y="78" style="clip-path:url(#SVGID_00000169522722498483311210000014623422944870736567_);fill:#BF0A30;" width="126" height="5.9"/>
				</g>
			</g>
		</g>
	</g>
	<g>
		<path d="M16.5,66.8l-6.9,2.9l-1.2-3c-0.2-0.4-0.2-0.9-0.2-1.3s0.2-0.8,0.5-1.1c0.3-0.3,0.6-0.6,1-0.8c0.4-0.2,0.9-0.3,1.3-0.2
			c0.4,0.1,0.8,0.2,1.2,0.5c0.3,0.3,0.6,0.6,0.8,1l0.5,1.3l2.3-1L16.5,66.8z M12,66.8l-0.5-1.1c-0.1-0.1-0.2-0.3-0.3-0.3
			c-0.1-0.1-0.3-0.1-0.4-0.2s-0.3,0-0.5,0.1c-0.2,0.1-0.3,0.2-0.4,0.3c-0.1,0.1-0.1,0.3-0.2,0.4c0,0.1,0,0.3,0.1,0.4l0.5,1.1
			L12,66.8z"/>
		<path d="M14,60.6l-7.3,1.6l-0.7-3.3c-0.1-0.5-0.1-0.9,0-1.3c0.1-0.4,0.3-0.8,0.6-1.1c0.3-0.3,0.7-0.5,1.1-0.6
			c0.5-0.1,0.9-0.1,1.3,0.1c0.4,0.1,0.8,0.4,1.1,0.7s0.5,0.7,0.6,1.2l0.3,1.6l2.6-0.5L14,60.6z M9.7,59.7l-0.3-1.4
			c0-0.2-0.1-0.3-0.2-0.5c-0.1-0.1-0.2-0.2-0.4-0.2c-0.2,0-0.3,0-0.5,0c-0.2,0-0.3,0.1-0.5,0.2c-0.1,0.1-0.2,0.3-0.3,0.4
			c0,0.2,0,0.4,0,0.6l0.3,1.3L9.7,59.7z M13.1,56.5l-2.9,2.6l-0.7-1.8l3.1-2.8L13.1,56.5z"/>
		<path d="M12.7,50.2c0,0.6-0.1,1.1-0.3,1.6c-0.2,0.5-0.5,0.9-0.8,1.2c-0.3,0.4-0.8,0.6-1.2,0.8c-0.5,0.2-1,0.3-1.6,0.3
			c-0.6,0-1.1-0.1-1.6-0.3c-0.5-0.2-0.9-0.5-1.2-0.8c-0.4-0.3-0.6-0.8-0.8-1.2c-0.2-0.5-0.3-1-0.3-1.6c0-0.6,0.1-1.1,0.3-1.6
			s0.5-0.9,0.8-1.2c0.3-0.4,0.8-0.6,1.2-0.8c0.5-0.2,1-0.3,1.6-0.3c0.6,0,1.1,0.1,1.5,0.3c0.5,0.2,0.9,0.5,1.2,0.8s0.6,0.8,0.8,1.2
			C12.6,49.2,12.7,49.7,12.7,50.2z M10.9,50.2c0-0.3-0.1-0.6-0.2-0.8c-0.1-0.2-0.3-0.5-0.5-0.6s-0.4-0.3-0.7-0.4
			c-0.3-0.1-0.6-0.1-0.9-0.1c-0.3,0-0.6,0.1-0.9,0.2c-0.3,0.1-0.5,0.2-0.7,0.4C7,49,6.9,49.2,6.8,49.5c-0.1,0.2-0.2,0.5-0.2,0.8
			c0,0.3,0.1,0.6,0.2,0.8c0.1,0.2,0.3,0.5,0.5,0.6c0.2,0.2,0.4,0.3,0.7,0.4c0.3,0.1,0.6,0.1,0.9,0.1c0.3,0,0.6-0.1,0.9-0.1
			c0.3-0.1,0.5-0.2,0.7-0.4c0.2-0.2,0.3-0.4,0.4-0.7C10.9,50.8,10.9,50.5,10.9,50.2z"/>
		<path d="M13.4,42.2c-0.1,0.6-0.4,1.1-0.7,1.5c-0.3,0.4-0.8,0.7-1.3,0.9c-0.5,0.2-1,0.2-1.6,0.1l-4.5-1L5.8,42l4.4,0.9
			c0.3,0.1,0.5,0,0.8,0c0.2-0.1,0.4-0.2,0.6-0.4c0.2-0.2,0.3-0.4,0.3-0.6c0.1-0.3,0-0.5,0-0.7c-0.1-0.2-0.2-0.4-0.4-0.6
			s-0.4-0.3-0.7-0.3l-4.4-0.9l0.4-1.7l4.5,1c0.6,0.1,1,0.4,1.4,0.7c0.4,0.4,0.6,0.8,0.8,1.3S13.6,41.6,13.4,42.2z"/>
		<path d="M14.5,37.7l-6.8-3l1.3-2.9c0.2-0.5,0.5-0.9,0.9-1.3c0.4-0.3,0.7-0.6,1.2-0.8c0.4-0.2,0.9-0.2,1.4-0.2c0.5,0,1,0.1,1.5,0.4
			c0.5,0.2,0.9,0.5,1.3,0.9c0.3,0.4,0.6,0.7,0.8,1.2c0.2,0.4,0.2,0.9,0.2,1.4s-0.1,1-0.4,1.5L14.5,37.7z M14.1,35.5l-0.4,0.1
			l0.6-1.4c0.1-0.3,0.2-0.5,0.2-0.8c0-0.3,0-0.5-0.2-0.7c-0.1-0.2-0.3-0.4-0.5-0.6c-0.2-0.2-0.5-0.4-0.7-0.5
			c-0.3-0.1-0.6-0.2-0.9-0.2c-0.3,0-0.5,0-0.8,0.1c-0.2,0.1-0.5,0.2-0.6,0.4c-0.2,0.2-0.3,0.4-0.5,0.7l-0.6,1.4l-0.2-0.4L14.1,35.5z
			"/>
		<path d="M17.9,30.5l-6.2-4.3l1-1.5l4.8,3.4l1.9-2.7l1.3,0.9L17.9,30.5z"/>
		<path d="M22.1,25l-2.7-2.5l0.4,0.3l-5.2-0.7l1.4-1.5l4,0.6l-0.7,0.7l-1-3.8l1.4-1.5l1.2,5.1l-0.4-0.6l2.8,2.6L22.1,25z"/>
		<path d="M28.2,19.3l-3.7-6.5l1.4-0.8l4.6,2.5l-1,0.6l0.2-5.2L31,9.1l3.7,6.5l-1.5,0.9l-1.2-2c-0.3-0.6-0.6-1.1-0.8-1.5
			c-0.2-0.5-0.4-0.9-0.6-1.4l0.5,0.4l-0.2,3.8l-0.6,0.4l-3.4-1.8l-0.1-0.6c0.3,0.4,0.6,0.8,0.9,1.2c0.3,0.4,0.6,0.9,0.9,1.5l1.2,2
			L28.2,19.3z"/>
		<path d="M35.2,15.4l0.6-8l1.5-0.5l5.1,6.3l-1.8,0.6l-2.5-3.2c-0.1-0.1-0.2-0.3-0.3-0.4c-0.1-0.1-0.2-0.3-0.3-0.5
			c-0.1-0.2-0.2-0.3-0.3-0.5C37.1,9,37,8.9,36.9,8.8l0.3-0.1c0,0.2,0,0.4,0,0.5s0,0.4,0,0.5c0,0.2,0,0.4,0,0.5c0,0.2,0,0.4,0,0.5
			l-0.2,4L35.2,15.4z M36.2,13.6l0.1-1.5l3.3-1l0.9,1.1L36.2,13.6z"/>
		<path d="M42.9,13.1l-0.8-7.5l3.1-0.3c0.5-0.1,1.1,0,1.5,0.1c0.5,0.1,0.9,0.4,1.3,0.6c0.4,0.3,0.7,0.7,0.9,1.1
			c0.2,0.4,0.4,0.9,0.4,1.5c0.1,0.5,0,1.1-0.1,1.5s-0.3,0.9-0.6,1.3c-0.3,0.4-0.7,0.7-1.1,0.9c-0.4,0.2-0.9,0.4-1.5,0.4L42.9,13.1z
			 M44.6,11.7l-0.3-0.3l1.5-0.2c0.3,0,0.6-0.1,0.8-0.2c0.2-0.1,0.4-0.3,0.6-0.5s0.3-0.4,0.3-0.7c0.1-0.3,0.1-0.6,0-0.9
			c0-0.3-0.1-0.6-0.2-0.9c-0.1-0.3-0.3-0.5-0.5-0.6c-0.2-0.2-0.4-0.3-0.6-0.4c-0.2-0.1-0.5-0.1-0.8-0.1l-1.5,0.2l0.2-0.4L44.6,11.7z
			"/>
		<path d="M50.8,12.5L51.5,5l5.2,0.5L56.6,7l-3.4-0.3l-0.4,4.4l3.6,0.3L56.1,13L50.8,12.5z M52,9.5L52.1,8L56,8.4l-0.1,1.5L52,9.5z"
			/>
		<path d="M60.4,14l0.5-1.4l1.2,0.4l1.5-4.2l-1.2-0.4l0.5-1.4L67,8.4l-0.5,1.4l-1.2-0.4l-1.5,4.2L65,14l-0.5,1.4L60.4,14z"/>
		<path d="M65.9,15.9l3.8-6.5l1.4,0.8l0.7,6.6l-0.3-0.2c0.1-0.2,0.2-0.4,0.3-0.6c0.1-0.2,0.2-0.4,0.3-0.6c0.1-0.2,0.2-0.4,0.3-0.6
			c0.1-0.2,0.2-0.4,0.3-0.6c0.1-0.2,0.3-0.5,0.4-0.7l0.9-1.6l1.5,0.9l-3.8,6.5l-1.4-0.8l-0.8-6.8l0.4,0.3c-0.1,0.3-0.3,0.6-0.4,0.8
			c-0.1,0.2-0.2,0.4-0.3,0.6c-0.1,0.2-0.2,0.3-0.2,0.5C69,14,69,14.1,68.9,14.2c-0.1,0.1-0.1,0.3-0.2,0.4l-1.3,2.2L65.9,15.9z"/>
		<path d="M76.5,23.5l4.3-4l-1.5-1.6l1.2-1.1l4.4,4.6l-1.2,1.1l-1.6-1.7l-4.3,4L76.5,23.5z"/>
		<path d="M79.9,27.3l6.3-4l1,1.5l-6.3,4L79.9,27.3z M82.4,31.2l6.3-4l1,1.5l-6.3,4L82.4,31.2z M82.8,26.3l1.4-0.9l2.6,4.1l-1.4,0.9
			L82.8,26.3z"/>
		<path d="M84,34.2l7-2.7l1.9,4.9l-1.4,0.6l-1.2-3.2l-4.1,1.6l1.3,3.3l-1.4,0.6L84,34.2z M87.2,33.8l1.4-0.5l1.4,3.6l-1.4,0.5
			L87.2,33.8z"/>
		<path d="M87.2,46.7c-0.1-0.6,0-1.2,0.2-1.7c0.2-0.5,0.5-0.9,0.9-1.2c0.4-0.3,0.9-0.5,1.5-0.5l4.6-0.4l0.2,1.8l-4.5,0.4
			c-0.3,0-0.5,0.1-0.7,0.2c-0.2,0.1-0.4,0.3-0.5,0.5c-0.1,0.2-0.1,0.5-0.1,0.7c0,0.3,0.1,0.5,0.3,0.7c0.1,0.2,0.3,0.4,0.6,0.5
			c0.2,0.1,0.5,0.2,0.7,0.1l4.5-0.4l0.2,1.8l-4.6,0.4c-0.6,0-1.1,0-1.6-0.3c-0.5-0.2-0.8-0.6-1.1-1C87.5,47.8,87.3,47.3,87.2,46.7z"
			/>
		<path d="M87.3,51.8c0-0.3,0.1-0.5,0.3-0.7S88,51,88.3,51c0.3,0,0.5,0.1,0.7,0.3c0.2,0.2,0.2,0.4,0.2,0.7c0,0.3-0.1,0.5-0.3,0.7
			c-0.2,0.2-0.4,0.2-0.7,0.2c-0.3,0-0.5-0.1-0.7-0.3C87.3,52.4,87.3,52.1,87.3,51.8z"/>
		<path d="M86.8,56.4c0.1-0.5,0.2-0.9,0.4-1.3s0.4-0.7,0.7-1c0.3-0.3,0.6-0.5,0.9-0.7l1,1.3c-0.5,0.3-0.9,0.6-1.1,0.9
			c-0.2,0.3-0.4,0.7-0.4,1.1c0,0.2,0,0.4,0,0.5c0,0.2,0.1,0.3,0.2,0.4c0.1,0.1,0.2,0.2,0.3,0.2c0.1,0,0.2,0,0.3,0s0.2-0.1,0.3-0.2
			c0.1-0.1,0.2-0.2,0.2-0.3c0.1-0.1,0.1-0.2,0.2-0.4c0.1-0.1,0.1-0.3,0.2-0.4c0.2-0.4,0.3-0.7,0.5-1c0.2-0.3,0.4-0.5,0.6-0.7
			c0.2-0.2,0.5-0.3,0.7-0.3c0.3-0.1,0.6-0.1,0.9,0c0.3,0.1,0.6,0.2,0.9,0.4c0.3,0.2,0.5,0.4,0.6,0.7c0.2,0.3,0.3,0.6,0.3,1
			c0,0.4,0,0.7,0,1.1c-0.1,0.5-0.2,0.9-0.4,1.2c-0.2,0.3-0.4,0.6-0.6,0.8c-0.2,0.2-0.5,0.4-0.8,0.5L91.8,59c0.2-0.1,0.4-0.2,0.5-0.4
			c0.1-0.2,0.3-0.3,0.4-0.5c0.1-0.2,0.2-0.4,0.2-0.6c0-0.2,0-0.4,0-0.6s-0.1-0.3-0.2-0.4c-0.1-0.1-0.2-0.2-0.3-0.2
			c-0.1,0-0.2,0-0.3,0.1c-0.1,0.1-0.2,0.1-0.3,0.2c-0.1,0.1-0.2,0.2-0.2,0.4c-0.1,0.1-0.1,0.3-0.2,0.5c-0.1,0.4-0.3,0.7-0.5,1
			c-0.2,0.3-0.4,0.5-0.6,0.7c-0.2,0.2-0.5,0.3-0.7,0.4c-0.3,0.1-0.6,0.1-0.9,0c-0.5-0.1-0.9-0.3-1.2-0.6c-0.3-0.3-0.5-0.7-0.6-1.2
			C86.7,57.5,86.7,57,86.8,56.4z"/>
		<path d="M85.7,60.8c0.1-0.3,0.2-0.5,0.4-0.6c0.2-0.1,0.5-0.1,0.7,0c0.3,0.1,0.5,0.2,0.6,0.4c0.1,0.2,0.1,0.5,0.1,0.7
			c-0.1,0.3-0.2,0.5-0.4,0.6s-0.5,0.1-0.8,0c-0.3-0.1-0.5-0.2-0.6-0.4C85.7,61.3,85.7,61,85.7,60.8z"/>
		<path d="M85.7,62l5.6,5.8l-0.6,1.4l-8-0.4l0.8-1.7l4,0.3c0.2,0,0.3,0,0.5,0s0.4,0,0.6,0.1c0.2,0,0.4,0,0.6,0.1
			c0.2,0,0.3,0,0.5,0.1l-0.1,0.3c-0.1-0.1-0.3-0.2-0.4-0.3c-0.1-0.1-0.3-0.2-0.4-0.4s-0.3-0.2-0.4-0.4c-0.1-0.1-0.3-0.3-0.4-0.4
			l-2.9-2.8L85.7,62z M86.4,63.8l1,1.1L86,68.1L84.5,68L86.4,63.8z"/>
	</g>
	<path class="st8" d="M85.5,70.1c-7,12.3-20.3,20.7-35.5,20.7s-28.4-8.3-35.5-20.7h-1.2C20.5,83,34.2,91.8,50,91.8
		c15.8,0,29.5-8.8,36.6-21.7H85.5z"/>
</g>
</svg>
