<?xml version="1.0" encoding="utf-8"?>
<!-- Generator: Adobe Illustrator 26.2.1, SVG Export Plug-In . SVG Version: 6.00 Build 0)  -->
<svg version="1.1" id="Layer_1" xmlns="http://www.w3.org/2000/svg" xmlns:xlink="http://www.w3.org/1999/xlink" x="0px" y="0px"
	 viewBox="0 0 275 150" style="enable-background:new 0 0 275 150;" xml:space="preserve">
<style type="text/css">
	.st0{fill:#C0C0C0;}
	.st1{fill:#245688;}
	.st2{fill:#2A304C;}
	.st3{fill:#C17E53;}
	.st4{fill:#D59673;}
</style>
<rect class="st0" width="275" height="150"/>
<g>
	<path class="st1" d="M203,139h-8.3V42c0-0.5-0.1-0.9-0.2-1.4h8c1.2,0,2.2-0.8,2.4-1.9c0.3-1.1-0.3-2.3-1.4-2.8l-65-30.6
		c-0.7-0.3-1.4-0.3-2.1,0l-65,30.6c-1,0.5-1.6,1.6-1.4,2.8c0.2,1.1,1.3,1.9,2.4,1.9h8c-0.1,0.4-0.2,0.9-0.2,1.4v97H72
		c-1.7,0-3,1.3-3,3c0,1.7,1.3,3,3,3h131c1.7,0,3-1.3,3-3C206,140.3,204.6,139,203,139z"/>
	<path class="st2" d="M206,142c0-1.7-1.3-3-3-3h-8.3V42c0-0.5-0.1-0.9-0.2-1.4h8c1.2,0,2.2-0.8,2.4-1.9c0.3-1.1-0.3-2.3-1.4-2.8
		l-65-30.6c-0.7-0.3-1.4-0.3-2.1,0l-65,30.6c-1,0.5-1.6,1.6-1.4,2.8c0.2,1.1,1.3,1.9,2.4,1.9h8c-0.1,0.4-0.2,0.9-0.2,1.4v8.8
		l94.2,94.2H203l0,0L206,142C206,142,206,142,206,142z"/>
	<path class="st3" d="M135.1,134.7c0,0.7-0.6,1.3-1.3,1.3H93.2c-0.7,0-1.3-0.6-1.3-1.3v-13.6c0-0.7,0.6-1.3,1.3-1.3h40.7
		c0.7,0,1.3,0.6,1.3,1.3L135.1,134.7L135.1,134.7z"/>
	<g>
		<path class="st4" d="M133.8,119.9H93.2c-0.7,0-1.3,0.6-1.3,1.3v1.4c0,0.7,0.6,1.3,1.3,1.3h40.7c0.7,0,1.3-0.6,1.3-1.3v-1.4
			C135.1,120.5,134.5,119.9,133.8,119.9z"/>
		<path class="st4" d="M97.1,132.9c0,0.2-0.1,0.3-0.3,0.3l0,0c-0.2,0-0.3-0.1-0.3-0.3v-7.5c0-0.2,0.1-0.3,0.3-0.3l0,0
			c0.2,0,0.3,0.1,0.3,0.3V132.9z"/>
		<path class="st4" d="M100.4,132.9c0,0.2-0.1,0.3-0.3,0.3l0,0c-0.2,0-0.3-0.1-0.3-0.3v-7.5c0-0.2,0.1-0.3,0.3-0.3l0,0
			c0.2,0,0.3,0.1,0.3,0.3V132.9z"/>
		<path class="st4" d="M103.8,132.9c0,0.2-0.1,0.3-0.3,0.3l0,0c-0.2,0-0.3-0.1-0.3-0.3v-7.5c0-0.2,0.1-0.3,0.3-0.3l0,0
			c0.2,0,0.3,0.1,0.3,0.3V132.9z"/>
		<path class="st4" d="M107.1,132.9c0,0.2-0.1,0.3-0.3,0.3l0,0c-0.2,0-0.3-0.1-0.3-0.3v-7.5c0-0.2,0.1-0.3,0.3-0.3l0,0
			c0.2,0,0.3,0.1,0.3,0.3V132.9z"/>
		<path class="st4" d="M110.5,132.9c0,0.2-0.1,0.3-0.3,0.3l0,0c-0.2,0-0.3-0.1-0.3-0.3v-7.5c0-0.2,0.1-0.3,0.3-0.3l0,0
			c0.2,0,0.3,0.1,0.3,0.3V132.9z"/>
		<path class="st4" d="M113.8,132.9c0,0.2-0.1,0.3-0.3,0.3l0,0c-0.2,0-0.3-0.1-0.3-0.3v-7.5c0-0.2,0.1-0.3,0.3-0.3l0,0
			c0.2,0,0.3,0.1,0.3,0.3V132.9z"/>
		<path class="st4" d="M117.1,132.9c0,0.2-0.1,0.3-0.3,0.3l0,0c-0.2,0-0.3-0.1-0.3-0.3v-7.5c0-0.2,0.1-0.3,0.3-0.3l0,0
			c0.2,0,0.3,0.1,0.3,0.3V132.9z"/>
		<path class="st4" d="M120.5,132.9c0,0.2-0.1,0.3-0.3,0.3l0,0c-0.2,0-0.3-0.1-0.3-0.3v-7.5c0-0.2,0.1-0.3,0.3-0.3l0,0
			c0.2,0,0.3,0.1,0.3,0.3V132.9z"/>
		<path class="st4" d="M123.8,132.9c0,0.2-0.1,0.3-0.3,0.3l0,0c-0.2,0-0.3-0.1-0.3-0.3v-7.5c0-0.2,0.1-0.3,0.3-0.3l0,0
			c0.2,0,0.3,0.1,0.3,0.3V132.9z"/>
		<path class="st4" d="M127.1,132.9c0,0.2-0.1,0.3-0.3,0.3l0,0c-0.2,0-0.3-0.1-0.3-0.3v-7.5c0-0.2,0.1-0.3,0.3-0.3l0,0
			c0.2,0,0.3,0.1,0.3,0.3V132.9z"/>
		<path class="st4" d="M130.5,132.9c0,0.2-0.1,0.3-0.3,0.3l0,0c-0.2,0-0.3-0.1-0.3-0.3v-7.5c0-0.2,0.1-0.3,0.3-0.3l0,0
			c0.2,0,0.3,0.1,0.3,0.3V132.9z"/>
	</g>
	<path class="st3" d="M183.1,134.7c0,0.7-0.6,1.3-1.3,1.3h-40.7c-0.7,0-1.3-0.6-1.3-1.3v-13.6c0-0.7,0.6-1.3,1.3-1.3h40.7
		c0.7,0,1.3,0.6,1.3,1.3V134.7L183.1,134.7z"/>
	<g>
		<path class="st4" d="M181.8,119.9h-40.7c-0.7,0-1.3,0.6-1.3,1.3v1.4c0,0.7,0.6,1.3,1.3,1.3h40.7c0.7,0,1.3-0.6,1.3-1.3v-1.4
			C183.1,120.5,182.5,119.9,181.8,119.9z"/>
		<path class="st4" d="M145.1,132.9c0,0.2-0.1,0.3-0.3,0.3l0,0c-0.2,0-0.3-0.1-0.3-0.3v-7.5c0-0.2,0.1-0.3,0.3-0.3l0,0
			c0.2,0,0.3,0.1,0.3,0.3V132.9z"/>
		<path class="st4" d="M148.5,132.9c0,0.2-0.1,0.3-0.3,0.3l0,0c-0.2,0-0.3-0.1-0.3-0.3v-7.5c0-0.2,0.1-0.3,0.3-0.3l0,0
			c0.2,0,0.3,0.1,0.3,0.3V132.9z"/>
		<path class="st4" d="M151.8,132.9c0,0.2-0.1,0.3-0.3,0.3l0,0c-0.2,0-0.3-0.1-0.3-0.3v-7.5c0-0.2,0.1-0.3,0.3-0.3l0,0
			c0.2,0,0.3,0.1,0.3,0.3V132.9z"/>
		<path class="st4" d="M155.1,132.9c0,0.2-0.1,0.3-0.3,0.3l0,0c-0.2,0-0.3-0.1-0.3-0.3v-7.5c0-0.2,0.1-0.3,0.3-0.3l0,0
			c0.2,0,0.3,0.1,0.3,0.3V132.9z"/>
		<path class="st4" d="M158.5,132.9c0,0.2-0.1,0.3-0.3,0.3l0,0c-0.2,0-0.3-0.1-0.3-0.3v-7.5c0-0.2,0.1-0.3,0.3-0.3l0,0
			c0.2,0,0.3,0.1,0.3,0.3V132.9z"/>
		<path class="st4" d="M161.8,132.9c0,0.2-0.1,0.3-0.3,0.3l0,0c-0.2,0-0.3-0.1-0.3-0.3v-7.5c0-0.2,0.1-0.3,0.3-0.3l0,0
			c0.2,0,0.3,0.1,0.3,0.3V132.9z"/>
		<path class="st4" d="M165.1,132.9c0,0.2-0.1,0.3-0.3,0.3l0,0c-0.2,0-0.3-0.1-0.3-0.3v-7.5c0-0.2,0.1-0.3,0.3-0.3l0,0
			c0.2,0,0.3,0.1,0.3,0.3V132.9z"/>
		<path class="st4" d="M168.5,132.9c0,0.2-0.1,0.3-0.3,0.3l0,0c-0.2,0-0.3-0.1-0.3-0.3v-7.5c0-0.2,0.1-0.3,0.3-0.3l0,0
			c0.2,0,0.3,0.1,0.3,0.3V132.9z"/>
		<path class="st4" d="M171.8,132.9c0,0.2-0.1,0.3-0.3,0.3l0,0c-0.2,0-0.3-0.1-0.3-0.3v-7.5c0-0.2,0.1-0.3,0.3-0.3l0,0
			c0.2,0,0.3,0.1,0.3,0.3V132.9z"/>
		<path class="st4" d="M175.1,132.9c0,0.2-0.1,0.3-0.3,0.3l0,0c-0.2,0-0.3-0.1-0.3-0.3v-7.5c0-0.2,0.1-0.3,0.3-0.3l0,0
			c0.2,0,0.3,0.1,0.3,0.3V132.9z"/>
		<path class="st4" d="M178.5,132.9c0,0.2-0.1,0.3-0.3,0.3l0,0c-0.2,0-0.3-0.1-0.3-0.3v-7.5c0-0.2,0.1-0.3,0.3-0.3l0,0
			c0.2,0,0.3,0.1,0.3,0.3V132.9z"/>
	</g>
	<path class="st3" d="M135.1,113.9c0,0.7-0.6,1.3-1.3,1.3H93.2c-0.7,0-1.3-0.6-1.3-1.3v-13.6c0-0.7,0.6-1.3,1.3-1.3h40.7
		c0.7,0,1.3,0.6,1.3,1.3L135.1,113.9L135.1,113.9z"/>
	<g>
		<path class="st4" d="M133.8,99.1H93.2c-0.7,0-1.3,0.6-1.3,1.3v1.4c0,0.7,0.6,1.3,1.3,1.3h40.7c0.7,0,1.3-0.6,1.3-1.3v-1.4
			C135.1,99.6,134.5,99.1,133.8,99.1z"/>
		<path class="st4" d="M97.1,112.1c0,0.2-0.1,0.3-0.3,0.3l0,0c-0.2,0-0.3-0.1-0.3-0.3v-7.5c0-0.2,0.1-0.3,0.3-0.3l0,0
			c0.2,0,0.3,0.1,0.3,0.3V112.1z"/>
		<path class="st4" d="M100.4,112.1c0,0.2-0.1,0.3-0.3,0.3l0,0c-0.2,0-0.3-0.1-0.3-0.3v-7.5c0-0.2,0.1-0.3,0.3-0.3l0,0
			c0.2,0,0.3,0.1,0.3,0.3V112.1z"/>
		<path class="st4" d="M103.8,112.1c0,0.2-0.1,0.3-0.3,0.3l0,0c-0.2,0-0.3-0.1-0.3-0.3v-7.5c0-0.2,0.1-0.3,0.3-0.3l0,0
			c0.2,0,0.3,0.1,0.3,0.3V112.1z"/>
		<path class="st4" d="M107.1,112.1c0,0.2-0.1,0.3-0.3,0.3l0,0c-0.2,0-0.3-0.1-0.3-0.3v-7.5c0-0.2,0.1-0.3,0.3-0.3l0,0
			c0.2,0,0.3,0.1,0.3,0.3V112.1z"/>
		<path class="st4" d="M110.5,112.1c0,0.2-0.1,0.3-0.3,0.3l0,0c-0.2,0-0.3-0.1-0.3-0.3v-7.5c0-0.2,0.1-0.3,0.3-0.3l0,0
			c0.2,0,0.3,0.1,0.3,0.3V112.1z"/>
		<path class="st4" d="M113.8,112.1c0,0.2-0.1,0.3-0.3,0.3l0,0c-0.2,0-0.3-0.1-0.3-0.3v-7.5c0-0.2,0.1-0.3,0.3-0.3l0,0
			c0.2,0,0.3,0.1,0.3,0.3V112.1z"/>
		<path class="st4" d="M117.1,112.1c0,0.2-0.1,0.3-0.3,0.3l0,0c-0.2,0-0.3-0.1-0.3-0.3v-7.5c0-0.2,0.1-0.3,0.3-0.3l0,0
			c0.2,0,0.3,0.1,0.3,0.3V112.1z"/>
		<path class="st4" d="M120.5,112.1c0,0.2-0.1,0.3-0.3,0.3l0,0c-0.2,0-0.3-0.1-0.3-0.3v-7.5c0-0.2,0.1-0.3,0.3-0.3l0,0
			c0.2,0,0.3,0.1,0.3,0.3V112.1z"/>
		<path class="st4" d="M123.8,112.1c0,0.2-0.1,0.3-0.3,0.3l0,0c-0.2,0-0.3-0.1-0.3-0.3v-7.5c0-0.2,0.1-0.3,0.3-0.3l0,0
			c0.2,0,0.3,0.1,0.3,0.3V112.1z"/>
		<path class="st4" d="M127.1,112.1c0,0.2-0.1,0.3-0.3,0.3l0,0c-0.2,0-0.3-0.1-0.3-0.3v-7.5c0-0.2,0.1-0.3,0.3-0.3l0,0
			c0.2,0,0.3,0.1,0.3,0.3V112.1z"/>
		<path class="st4" d="M130.5,112.1c0,0.2-0.1,0.3-0.3,0.3l0,0c-0.2,0-0.3-0.1-0.3-0.3v-7.5c0-0.2,0.1-0.3,0.3-0.3l0,0
			c0.2,0,0.3,0.1,0.3,0.3V112.1z"/>
	</g>
	<path class="st3" d="M183.1,113.9c0,0.7-0.6,1.3-1.3,1.3h-40.7c-0.7,0-1.3-0.6-1.3-1.3v-13.6c0-0.7,0.6-1.3,1.3-1.3h40.7
		c0.7,0,1.3,0.6,1.3,1.3V113.9L183.1,113.9z"/>
	<g>
		<path class="st4" d="M181.8,99.1h-40.7c-0.7,0-1.3,0.6-1.3,1.3v1.4c0,0.7,0.6,1.3,1.3,1.3h40.7c0.7,0,1.3-0.6,1.3-1.3v-1.4
			C183.1,99.6,182.5,99.1,181.8,99.1z"/>
		<path class="st4" d="M145.1,112.1c0,0.2-0.1,0.3-0.3,0.3l0,0c-0.2,0-0.3-0.1-0.3-0.3v-7.5c0-0.2,0.1-0.3,0.3-0.3l0,0
			c0.2,0,0.3,0.1,0.3,0.3V112.1z"/>
		<path class="st4" d="M148.5,112.1c0,0.2-0.1,0.3-0.3,0.3l0,0c-0.2,0-0.3-0.1-0.3-0.3v-7.5c0-0.2,0.1-0.3,0.3-0.3l0,0
			c0.2,0,0.3,0.1,0.3,0.3V112.1z"/>
		<path class="st4" d="M151.8,112.1c0,0.2-0.1,0.3-0.3,0.3l0,0c-0.2,0-0.3-0.1-0.3-0.3v-7.5c0-0.2,0.1-0.3,0.3-0.3l0,0
			c0.2,0,0.3,0.1,0.3,0.3V112.1z"/>
		<path class="st4" d="M155.1,112.1c0,0.2-0.1,0.3-0.3,0.3l0,0c-0.2,0-0.3-0.1-0.3-0.3v-7.5c0-0.2,0.1-0.3,0.3-0.3l0,0
			c0.2,0,0.3,0.1,0.3,0.3V112.1z"/>
		<path class="st4" d="M158.5,112.1c0,0.2-0.1,0.3-0.3,0.3l0,0c-0.2,0-0.3-0.1-0.3-0.3v-7.5c0-0.2,0.1-0.3,0.3-0.3l0,0
			c0.2,0,0.3,0.1,0.3,0.3V112.1z"/>
		<path class="st4" d="M161.8,112.1c0,0.2-0.1,0.3-0.3,0.3l0,0c-0.2,0-0.3-0.1-0.3-0.3v-7.5c0-0.2,0.1-0.3,0.3-0.3l0,0
			c0.2,0,0.3,0.1,0.3,0.3V112.1z"/>
		<path class="st4" d="M165.1,112.1c0,0.2-0.1,0.3-0.3,0.3l0,0c-0.2,0-0.3-0.1-0.3-0.3v-7.5c0-0.2,0.1-0.3,0.3-0.3l0,0
			c0.2,0,0.3,0.1,0.3,0.3V112.1z"/>
		<path class="st4" d="M168.5,112.1c0,0.2-0.1,0.3-0.3,0.3l0,0c-0.2,0-0.3-0.1-0.3-0.3v-7.5c0-0.2,0.1-0.3,0.3-0.3l0,0
			c0.2,0,0.3,0.1,0.3,0.3V112.1z"/>
		<path class="st4" d="M171.8,112.1c0,0.2-0.1,0.3-0.3,0.3l0,0c-0.2,0-0.3-0.1-0.3-0.3v-7.5c0-0.2,0.1-0.3,0.3-0.3l0,0
			c0.2,0,0.3,0.1,0.3,0.3V112.1z"/>
		<path class="st4" d="M175.1,112.1c0,0.2-0.1,0.3-0.3,0.3l0,0c-0.2,0-0.3-0.1-0.3-0.3v-7.5c0-0.2,0.1-0.3,0.3-0.3l0,0
			c0.2,0,0.3,0.1,0.3,0.3V112.1z"/>
		<path class="st4" d="M178.5,112.1c0,0.2-0.1,0.3-0.3,0.3l0,0c-0.2,0-0.3-0.1-0.3-0.3v-7.5c0-0.2,0.1-0.3,0.3-0.3l0,0
			c0.2,0,0.3,0.1,0.3,0.3V112.1z"/>
	</g>
	<path class="st3" d="M135.1,93.1c0,0.7-0.6,1.3-1.3,1.3H93.2c-0.7,0-1.3-0.6-1.3-1.3V79.5c0-0.7,0.6-1.3,1.3-1.3h40.7
		c0.7,0,1.3,0.6,1.3,1.3L135.1,93.1L135.1,93.1z"/>
	<g>
		<path class="st4" d="M133.8,78.3H93.2c-0.7,0-1.3,0.6-1.3,1.3v1.4c0,0.7,0.6,1.3,1.3,1.3h40.7c0.7,0,1.3-0.6,1.3-1.3v-1.4
			C135.1,78.8,134.5,78.3,133.8,78.3z"/>
		<path class="st4" d="M97.1,91.3c0,0.2-0.1,0.3-0.3,0.3l0,0c-0.2,0-0.3-0.1-0.3-0.3v-7.5c0-0.2,0.1-0.3,0.3-0.3l0,0
			c0.2,0,0.3,0.1,0.3,0.3V91.3z"/>
		<path class="st4" d="M100.4,91.3c0,0.2-0.1,0.3-0.3,0.3l0,0c-0.2,0-0.3-0.1-0.3-0.3v-7.5c0-0.2,0.1-0.3,0.3-0.3l0,0
			c0.2,0,0.3,0.1,0.3,0.3V91.3z"/>
		<path class="st4" d="M103.8,91.3c0,0.2-0.1,0.3-0.3,0.3l0,0c-0.2,0-0.3-0.1-0.3-0.3v-7.5c0-0.2,0.1-0.3,0.3-0.3l0,0
			c0.2,0,0.3,0.1,0.3,0.3V91.3z"/>
		<path class="st4" d="M107.1,91.3c0,0.2-0.1,0.3-0.3,0.3l0,0c-0.2,0-0.3-0.1-0.3-0.3v-7.5c0-0.2,0.1-0.3,0.3-0.3l0,0
			c0.2,0,0.3,0.1,0.3,0.3V91.3z"/>
		<path class="st4" d="M110.5,91.3c0,0.2-0.1,0.3-0.3,0.3l0,0c-0.2,0-0.3-0.1-0.3-0.3v-7.5c0-0.2,0.1-0.3,0.3-0.3l0,0
			c0.2,0,0.3,0.1,0.3,0.3V91.3z"/>
		<path class="st4" d="M113.8,91.3c0,0.2-0.1,0.3-0.3,0.3l0,0c-0.2,0-0.3-0.1-0.3-0.3v-7.5c0-0.2,0.1-0.3,0.3-0.3l0,0
			c0.2,0,0.3,0.1,0.3,0.3V91.3z"/>
		<path class="st4" d="M117.1,91.3c0,0.2-0.1,0.3-0.3,0.3l0,0c-0.2,0-0.3-0.1-0.3-0.3v-7.5c0-0.2,0.1-0.3,0.3-0.3l0,0
			c0.2,0,0.3,0.1,0.3,0.3V91.3z"/>
		<path class="st4" d="M120.5,91.3c0,0.2-0.1,0.3-0.3,0.3l0,0c-0.2,0-0.3-0.1-0.3-0.3v-7.5c0-0.2,0.1-0.3,0.3-0.3l0,0
			c0.2,0,0.3,0.1,0.3,0.3V91.3z"/>
		<path class="st4" d="M123.8,91.3c0,0.2-0.1,0.3-0.3,0.3l0,0c-0.2,0-0.3-0.1-0.3-0.3v-7.5c0-0.2,0.1-0.3,0.3-0.3l0,0
			c0.2,0,0.3,0.1,0.3,0.3V91.3z"/>
		<path class="st4" d="M127.1,91.3c0,0.2-0.1,0.3-0.3,0.3l0,0c-0.2,0-0.3-0.1-0.3-0.3v-7.5c0-0.2,0.1-0.3,0.3-0.3l0,0
			c0.2,0,0.3,0.1,0.3,0.3V91.3z"/>
		<path class="st4" d="M130.5,91.3c0,0.2-0.1,0.3-0.3,0.3l0,0c-0.2,0-0.3-0.1-0.3-0.3v-7.5c0-0.2,0.1-0.3,0.3-0.3l0,0
			c0.2,0,0.3,0.1,0.3,0.3V91.3z"/>
	</g>
	<path class="st3" d="M183.1,93.1c0,0.7-0.6,1.3-1.3,1.3h-40.7c-0.7,0-1.3-0.6-1.3-1.3V79.5c0-0.7,0.6-1.3,1.3-1.3h40.7
		c0.7,0,1.3,0.6,1.3,1.3V93.1L183.1,93.1z"/>
	<g>
		<path class="st4" d="M181.8,78.3h-40.7c-0.7,0-1.3,0.6-1.3,1.3v1.4c0,0.7,0.6,1.3,1.3,1.3h40.7c0.7,0,1.3-0.6,1.3-1.3v-1.4
			C183.1,78.8,182.5,78.3,181.8,78.3z"/>
		<path class="st4" d="M145.1,91.3c0,0.2-0.1,0.3-0.3,0.3l0,0c-0.2,0-0.3-0.1-0.3-0.3v-7.5c0-0.2,0.1-0.3,0.3-0.3l0,0
			c0.2,0,0.3,0.1,0.3,0.3V91.3z"/>
		<path class="st4" d="M148.5,91.3c0,0.2-0.1,0.3-0.3,0.3l0,0c-0.2,0-0.3-0.1-0.3-0.3v-7.5c0-0.2,0.1-0.3,0.3-0.3l0,0
			c0.2,0,0.3,0.1,0.3,0.3V91.3z"/>
		<path class="st4" d="M151.8,91.3c0,0.2-0.1,0.3-0.3,0.3l0,0c-0.2,0-0.3-0.1-0.3-0.3v-7.5c0-0.2,0.1-0.3,0.3-0.3l0,0
			c0.2,0,0.3,0.1,0.3,0.3V91.3z"/>
		<path class="st4" d="M155.1,91.3c0,0.2-0.1,0.3-0.3,0.3l0,0c-0.2,0-0.3-0.1-0.3-0.3v-7.5c0-0.2,0.1-0.3,0.3-0.3l0,0
			c0.2,0,0.3,0.1,0.3,0.3V91.3z"/>
		<path class="st4" d="M158.5,91.3c0,0.2-0.1,0.3-0.3,0.3l0,0c-0.2,0-0.3-0.1-0.3-0.3v-7.5c0-0.2,0.1-0.3,0.3-0.3l0,0
			c0.2,0,0.3,0.1,0.3,0.3V91.3z"/>
		<path class="st4" d="M161.8,91.3c0,0.2-0.1,0.3-0.3,0.3l0,0c-0.2,0-0.3-0.1-0.3-0.3v-7.5c0-0.2,0.1-0.3,0.3-0.3l0,0
			c0.2,0,0.3,0.1,0.3,0.3V91.3z"/>
		<path class="st4" d="M165.1,91.3c0,0.2-0.1,0.3-0.3,0.3l0,0c-0.2,0-0.3-0.1-0.3-0.3v-7.5c0-0.2,0.1-0.3,0.3-0.3l0,0
			c0.2,0,0.3,0.1,0.3,0.3V91.3z"/>
		<path class="st4" d="M168.5,91.3c0,0.2-0.1,0.3-0.3,0.3l0,0c-0.2,0-0.3-0.1-0.3-0.3v-7.5c0-0.2,0.1-0.3,0.3-0.3l0,0
			c0.2,0,0.3,0.1,0.3,0.3V91.3z"/>
		<path class="st4" d="M171.8,91.3c0,0.2-0.1,0.3-0.3,0.3l0,0c-0.2,0-0.3-0.1-0.3-0.3v-7.5c0-0.2,0.1-0.3,0.3-0.3l0,0
			c0.2,0,0.3,0.1,0.3,0.3V91.3z"/>
		<path class="st4" d="M175.1,91.3c0,0.2-0.1,0.3-0.3,0.3l0,0c-0.2,0-0.3-0.1-0.3-0.3v-7.5c0-0.2,0.1-0.3,0.3-0.3l0,0
			c0.2,0,0.3,0.1,0.3,0.3V91.3z"/>
		<path class="st4" d="M178.5,91.3c0,0.2-0.1,0.3-0.3,0.3l0,0c-0.2,0-0.3-0.1-0.3-0.3v-7.5c0-0.2,0.1-0.3,0.3-0.3l0,0
			c0.2,0,0.3,0.1,0.3,0.3V91.3z"/>
	</g>
	<path class="st3" d="M159.1,72.3c0,0.7-0.6,1.3-1.3,1.3h-40.7c-0.7,0-1.3-0.6-1.3-1.3V58.7c0-0.7,0.6-1.3,1.3-1.3h40.7
		c0.7,0,1.3,0.6,1.3,1.3V72.3L159.1,72.3z"/>
	<g>
		<path class="st4" d="M157.8,57.5h-40.7c-0.7,0-1.3,0.6-1.3,1.3v1.4c0,0.7,0.6,1.3,1.3,1.3h40.7c0.7,0,1.3-0.6,1.3-1.3v-1.4
			C159.1,58,158.5,57.5,157.8,57.5z"/>
		<path class="st4" d="M121.1,70.5c0,0.2-0.1,0.3-0.3,0.3l0,0c-0.2,0-0.3-0.1-0.3-0.3V63c0-0.2,0.1-0.3,0.3-0.3l0,0
			c0.2,0,0.3,0.1,0.3,0.3V70.5z"/>
		<path class="st4" d="M124.5,70.5c0,0.2-0.1,0.3-0.3,0.3l0,0c-0.2,0-0.3-0.1-0.3-0.3V63c0-0.2,0.1-0.3,0.3-0.3l0,0
			c0.2,0,0.3,0.1,0.3,0.3V70.5z"/>
		<path class="st4" d="M127.8,70.5c0,0.2-0.1,0.3-0.3,0.3l0,0c-0.2,0-0.3-0.1-0.3-0.3V63c0-0.2,0.1-0.3,0.3-0.3l0,0
			c0.2,0,0.3,0.1,0.3,0.3V70.5z"/>
		<path class="st4" d="M131.1,70.5c0,0.2-0.1,0.3-0.3,0.3l0,0c-0.2,0-0.3-0.1-0.3-0.3V63c0-0.2,0.1-0.3,0.3-0.3l0,0
			c0.2,0,0.3,0.1,0.3,0.3V70.5z"/>
		<path class="st4" d="M134.5,70.5c0,0.2-0.1,0.3-0.3,0.3l0,0c-0.2,0-0.3-0.1-0.3-0.3V63c0-0.2,0.1-0.3,0.3-0.3l0,0
			c0.2,0,0.3,0.1,0.3,0.3V70.5z"/>
		<path class="st4" d="M137.8,70.5c0,0.2-0.1,0.3-0.3,0.3l0,0c-0.2,0-0.3-0.1-0.3-0.3V63c0-0.2,0.1-0.3,0.3-0.3l0,0
			c0.2,0,0.3,0.1,0.3,0.3V70.5z"/>
		<path class="st4" d="M141.1,70.5c0,0.2-0.1,0.3-0.3,0.3l0,0c-0.2,0-0.3-0.1-0.3-0.3V63c0-0.2,0.1-0.3,0.3-0.3l0,0
			c0.2,0,0.3,0.1,0.3,0.3V70.5z"/>
		<path class="st4" d="M144.5,70.5c0,0.2-0.1,0.3-0.3,0.3l0,0c-0.2,0-0.3-0.1-0.3-0.3V63c0-0.2,0.1-0.3,0.3-0.3l0,0
			c0.2,0,0.3,0.1,0.3,0.3V70.5z"/>
		<path class="st4" d="M147.8,70.5c0,0.2-0.1,0.3-0.3,0.3l0,0c-0.2,0-0.3-0.1-0.3-0.3V63c0-0.2,0.1-0.3,0.3-0.3l0,0
			c0.2,0,0.3,0.1,0.3,0.3V70.5z"/>
		<path class="st4" d="M151.1,70.5c0,0.2-0.1,0.3-0.3,0.3l0,0c-0.2,0-0.3-0.1-0.3-0.3V63c0-0.2,0.1-0.3,0.3-0.3l0,0
			c0.2,0,0.3,0.1,0.3,0.3V70.5z"/>
		<path class="st4" d="M154.5,70.5c0,0.2-0.1,0.3-0.3,0.3l0,0c-0.2,0-0.3-0.1-0.3-0.3V63c0-0.2,0.1-0.3,0.3-0.3l0,0
			c0.2,0,0.3,0.1,0.3,0.3V70.5z"/>
	</g>
	<g>
	</g>
	<g>
	</g>
	<g>
	</g>
	<g>
	</g>
	<g>
	</g>
	<g>
	</g>
	<g>
	</g>
	<g>
	</g>
	<g>
	</g>
	<g>
	</g>
	<g>
	</g>
	<g>
	</g>
	<g>
	</g>
	<g>
	</g>
	<g>
	</g>
</g>
</svg>
